<?xml version="1.0" encoding="UTF-8"?>
<svg xmlns="http://www.w3.org/2000/svg" xmlns:xlink="http://www.w3.org/1999/xlink" viewBox="0 0 132 132">
  <defs>
    <style>
      .cls-1 {
        fill: #17925d;
      }

      .cls-2 {
        fill: #efc1a8;
      }

      .cls-3 {
        fill: #fff;
      }

      .cls-4 {
        fill: #199560;
      }

      .cls-5 {
        fill: #017043;
      }

      .cls-6 {
        fill: #1b9761;
      }

      .cls-7 {
        fill: #087b4c;
      }

      .cls-8 {
        fill: #07794a;
      }

      .cls-9 {
        fill: #16905c;
      }

      .cls-10 {
        fill: #185;
      }

      .cls-11 {
        fill: #f4a61c;
      }

      .cls-12 {
        fill: #563f33;
      }

      .cls-13 {
        fill: #087a4b;
      }

      .cls-14 {
        fill: #158f5b;
      }

      .cls-15 {
        fill: #0f8553;
      }

      .cls-16 {
        fill: #138c59;
      }

      .cls-17 {
        fill: #1b9862;
      }

      .cls-18 {
        fill: #312b26;
      }

      .cls-19 {
        fill: #0a7e4e;
      }

      .cls-20 {
        fill: #0b7f4f;
      }

      .cls-21 {
        fill: #d1871c;
      }

      .cls-22 {
        fill: #0a7d4d;
      }

      .cls-23 {
        fill: #027245;
      }

      .cls-24 {
        fill: #158e5a;
      }

      .cls-25 {
        fill: #1c9963;
      }

      .cls-26 {
        fill: #fffdf0;
      }

      .cls-27 {
        fill: #ff8d32;
      }

      .cls-28 {
        fill: #118956;
      }

      .cls-29 {
        fill: #057648;
      }

      .cls-30 {
        fill: #0d8251;
      }

      .cls-31 {
        fill: #1a9661;
      }

      .cls-32 {
        fill: #d66a21;
      }

      .cls-33 {
        fill: #0f8654;
      }

      .cls-34 {
        fill: #138b58;
      }

      .cls-35 {
        fill: #17915d;
      }

      .cls-36 {
        fill: #fed546;
      }

      .cls-37 {
        fill: #ffdcc5;
      }

      .cls-38 {
        fill: #0e8352;
      }

      .cls-39 {
        fill: #037345;
      }

      .cls-40 {
        fill: #19945f;
      }

      .cls-41 {
        clip-path: url(#clippath);
      }

      .cls-42 {
        fill: #067849;
      }

      .cls-43 {
        fill: none;
      }

      .cls-44 {
        fill: #0c8050;
      }

      .cls-45 {
        fill: #067749;
      }

      .cls-46 {
        fill: #fdc72f;
      }

      .cls-47 {
        fill: #fbe945;
      }

      .cls-48 {
        fill: #108755;
      }

      .cls-49 {
        fill: #027144;
      }

      .cls-50 {
        fill: #097c4d;
      }

      .cls-51 {
        fill: #047446;
      }

      .cls-52 {
        fill: #128a57;
      }

      .cls-53 {
        fill: #0c8151;
      }

      .cls-54 {
        fill: #036339;
      }

      .cls-55 {
        fill: #ffce80;
      }

      .cls-56 {
        fill: #148d59;
      }

      .cls-57 {
        fill: #047547;
      }

      .cls-58 {
        fill: #fffcfa;
      }

      .cls-59 {
        fill: #18935e;
      }
    </style>
    <clipPath id="clippath">
      <rect class="cls-43" x="84.9" y="52.18" width="27.98" height="17.08" rx="2.45" ry="2.45" transform="translate(-16.96 54.06) rotate(-28.26)"/>
    </clipPath>
  </defs>
  <g id="bg">
    <rect class="cls-58" width="132" height="132" rx="20" ry="20"/>
  </g>
  <g id="gc">
    <g>
      <rect class="cls-54" x="85.27" y="52.87" width="27.98" height="17.08" rx="2.45" ry="2.45" transform="translate(-17.25 54.32) rotate(-28.26)"/>
      <g class="cls-41">
        <polygon class="cls-25" points="84.51 47.09 84.03 74.34 83.04 74.34 83.04 47.09 84.51 47.09"/>
        <polygon class="cls-25" points="85.11 47.09 84.62 74.34 84.03 74.34 84.51 47.09 85.11 47.09"/>
        <polygon class="cls-17" points="85.7 47.09 85.21 74.34 84.62 74.34 85.11 47.09 85.7 47.09"/>
        <polygon class="cls-6" points="86.29 47.09 85.81 74.34 85.21 74.34 85.7 47.09 86.29 47.09"/>
        <polygon class="cls-31" points="86.88 47.09 86.4 74.34 85.81 74.34 86.29 47.09 86.88 47.09"/>
        <polygon class="cls-4" points="87.47 47.09 86.99 74.34 86.4 74.34 86.88 47.09 87.47 47.09"/>
        <polygon class="cls-40" points="88.07 47.09 87.58 74.34 86.99 74.34 87.47 47.09 88.07 47.09"/>
        <polygon class="cls-59" points="88.66 47.09 88.17 74.34 87.58 74.34 88.07 47.09 88.66 47.09"/>
        <polygon class="cls-1" points="89.25 47.09 88.77 74.34 88.17 74.34 88.66 47.09 89.25 47.09"/>
        <polygon class="cls-35" points="89.84 47.09 89.36 74.34 88.77 74.34 89.25 47.09 89.84 47.09"/>
        <polygon class="cls-9" points="90.43 47.09 89.95 74.34 89.36 74.34 89.84 47.09 90.43 47.09"/>
        <polygon class="cls-14" points="91.03 47.09 90.54 74.34 89.95 74.34 90.43 47.09 91.03 47.09"/>
        <polygon class="cls-24" points="91.62 47.09 91.13 74.34 90.54 74.34 91.03 47.09 91.62 47.09"/>
        <polygon class="cls-56" points="92.21 47.09 91.73 74.34 91.13 74.34 91.62 47.09 92.21 47.09"/>
        <polygon class="cls-16" points="92.8 47.09 92.32 74.34 91.73 74.34 92.21 47.09 92.8 47.09"/>
        <polygon class="cls-34" points="93.39 47.09 92.91 74.34 92.32 74.34 92.8 47.09 93.39 47.09"/>
        <polygon class="cls-52" points="93.99 47.09 93.5 74.34 92.91 74.34 93.39 47.09 93.99 47.09"/>
        <polygon class="cls-28" points="94.58 47.09 94.09 74.34 93.5 74.34 93.99 47.09 94.58 47.09"/>
        <polygon class="cls-10" points="95.17 47.09 94.69 74.34 94.09 74.34 94.58 47.09 95.17 47.09"/>
        <polygon class="cls-48" points="95.76 47.09 95.28 74.34 94.69 74.34 95.17 47.09 95.76 47.09"/>
        <polygon class="cls-33" points="96.36 47.09 95.87 74.34 95.28 74.34 95.76 47.09 96.36 47.09"/>
        <polygon class="cls-15" points="96.95 47.09 96.46 74.34 95.87 74.34 96.36 47.09 96.95 47.09"/>
        <polygon class="cls-38" points="97.54 47.09 97.06 74.34 96.46 74.34 96.95 47.09 97.54 47.09"/>
        <polygon class="cls-30" points="98.13 47.09 97.65 74.34 97.06 74.34 97.54 47.09 98.13 47.09"/>
        <polygon class="cls-53" points="98.72 47.09 98.24 74.34 97.65 74.34 98.13 47.09 98.72 47.09"/>
        <polygon class="cls-44" points="99.32 47.09 98.83 74.34 98.24 74.34 98.72 47.09 99.32 47.09"/>
        <polygon class="cls-20" points="99.91 47.09 99.42 74.34 98.83 74.34 99.32 47.09 99.91 47.09"/>
        <polygon class="cls-19" points="100.5 47.09 100.02 74.34 99.42 74.34 99.91 47.09 100.5 47.09"/>
        <polygon class="cls-22" points="101.09 47.09 100.61 74.34 100.02 74.34 100.5 47.09 101.09 47.09"/>
        <polygon class="cls-50" points="101.68 47.09 101.2 74.34 100.61 74.34 101.09 47.09 101.68 47.09"/>
        <polygon class="cls-7" points="102.28 47.09 101.79 74.34 101.2 74.34 101.68 47.09 102.28 47.09"/>
        <polygon class="cls-13" points="102.87 47.09 102.38 74.34 101.79 74.34 102.28 47.09 102.87 47.09"/>
        <polygon class="cls-8" points="103.46 47.09 102.98 74.34 102.38 74.34 102.87 47.09 103.46 47.09"/>
        <polygon class="cls-42" points="104.05 47.09 103.57 74.34 102.98 74.34 103.46 47.09 104.05 47.09"/>
        <polygon class="cls-45" points="104.64 47.09 104.16 74.34 103.57 74.34 104.05 47.09 104.64 47.09"/>
        <polygon class="cls-29" points="105.24 47.09 104.75 74.34 104.16 74.34 104.64 47.09 105.24 47.09"/>
        <polygon class="cls-57" points="105.83 47.09 105.34 74.34 104.75 74.34 105.24 47.09 105.83 47.09"/>
        <polygon class="cls-51" points="106.42 47.09 105.94 74.34 105.34 74.34 105.83 47.09 106.42 47.09"/>
        <polygon class="cls-39" points="107.01 47.09 106.53 74.34 105.94 74.34 106.42 47.09 107.01 47.09"/>
        <polygon class="cls-23" points="107.61 47.09 107.12 74.34 106.53 74.34 107.01 47.09 107.61 47.09"/>
        <polygon class="cls-49" points="108.2 47.09 107.71 74.34 107.12 74.34 107.61 47.09 108.2 47.09"/>
        <polygon class="cls-5" points="108.79 47.09 108.31 74.34 107.71 74.34 108.2 47.09 108.79 47.09"/>
        <polygon class="cls-5" points="108.31 74.34 108.79 47.09 114.73 47.09 114.73 74.34 108.31 74.34"/>
      </g>
      <path class="cls-3" d="m101.6,58.53c.57-.62,1.4-.17,1.85-.62-.79-.18-1.49-.68-1.91-1.43h0s0,0,0-.01c-.01-.02-.04-.03-.07-.02-.01,0-.02.02-.02.03h0c-.16.34-.19.73-.06,1.1h0c-.27-.02-.55.03-.81.17-.17.09-.31.21-.42.34h0c.51.05.99.2,1.43.43h.01s0,0,0,0Zm-1.93-1.72c-.34.21-.58.51-.73.85h0c-.06-.38-.06-.72-.03-1.06v.02c-.42.26-.7.65-.84,1.09h0s-.52-.45-.52-.45l.25-.68-.67.3-.58-.46.06.73-.62.39.71.17.09.68c-.44-.13-.92-.1-1.37.1h0c.29.15.57.35.83.58l.02.02c-.36-.07-.74-.03-1.1.14h0c.34.15.68.34.99.57l.03.02s.05.02.08,0c.01,0,.02-.02.03-.03h0c.34-.49.82-.93,1.41-1.25s1.22-.48,1.84-.49h-.03s.02,0,.04,0c.02-.01.04-.04.03-.07h0c-.02-.42,0-.81.07-1.18h0s0,.01,0,.01Zm-2.19,3.36c.05-.09.13-.16.22-.22.09-.05.18-.07.27-.07h0c-.05-.11-.29-.12-.47-.02-.13.07-.18.15-.14.22.03.05.07.08.12.09h0Zm1.45-1.07s-.01,0-.02,0c-.12.06-.2.17-.23.28h0s0,.03.01.04c0,.02.02.03.03.04h0c.16-.17.33-.27.46-.22.02-.05.02-.1,0-.15h0c-.03-.07-.13-.07-.26,0Zm-1.1-.33s-.04.02-.06.03c-.39.21-.6.63-.56,1.04h0s.02.05.05.02c.06-.08.14-.14.23-.19h.01s0,0,0,0c0,0,.02,0,.02-.01.16-.09.35-.1.52-.04h0c.06.06.11.13.15.21s.07.17.09.26h0c-.08.02-.14-.03-.22.01s-.1.12-.23.19-.17.02-.25.06c-.1.05-.06.16,0,.27.27.5,1.1.94,1.59.68s.58-1.2.31-1.7c-.06-.11-.14-.2-.24-.16-.03.07-.08.13-.16.17,0,0-.01,0-.02,0h0c-.13.07-.19.03-.26.07-.09.05.02.23-.08.3-.09-.07-.16-.17-.22-.28-.05-.1-.09-.2-.1-.3h0c.04-.16.15-.31.32-.4,0,0,.02,0,.03-.01h0s0,0,.01,0c.09-.05.19-.08.3-.09h0s.04-.02.02-.04c-.33-.27-.79-.33-1.18-.12-.02.01-.04.02-.06.03h0s0,0,0,0Zm-1.85,1.56c-.17.02-.34.07-.51.16-.26.14-.46.35-.59.59h0c-.24-.32-.58-.51-.95-.56h0s-.02,0-.03,0c-.02.01-.03.04-.02.07,0,0,0,0,0,0h0c.4.77.42,1.63.14,2.38h0c.62-.12.71-1.06,1.54-1.19.05-.51.19-1,.42-1.44h0s0-.01,0-.01Zm8.01-1.69c.06.12.11.24.15.36-.5.39-.96,0-1.51.33.08.08.17.19.26.3v.02c.48-.25.9.08,1.38-.26.04.15.08.3.11.44-.39.26-.75-.07-1.21.2.04.06.08.13.12.2l.06.11,1.1-.14c.02.16.04.31.05.47-.28.13-.57-.17-.97.08.04.1.07.19.1.29.35-.22.61.07.88-.04,0,.16,0,.31-.02.47-.2,0-.47-.18-.77-.04-.02-.11-.04-.22-.07-.32-.32.16-.66.19-.98.1h0c-.17-.5-1.13-.59-1.31-.92-.2-.37-.12-.67-.39-1.16-.23-.4-.59-.67-1-.79h0c-.08-.02-.15-.04-.23-.04h0c.41.15.78.44,1.02.85h0c.25.47.17.83.4,1.26s1.06.46,1.29.9c.12.27.15.54.12.81h0c.35.11.75.1,1.11-.04h0s.01,0,.02-.01c.06-.03.09-.09.08-.15h0c0-.07-.01-.13-.02-.2.26-.13.5.04.69.06-.02.15-.05.29-.08.43-.18-.09-.38-.13-.58-.11h0c0,.08,0,.17,0,.25.19-.01.36.03.52.12h0c-.04.15-.09.29-.14.43-.13-.08-.27-.12-.41-.14h0c-.01.07-.02.15-.04.22.13.02.25.07.36.14h0c-.07.16-.14.31-.22.45-.32-.46-1.18-.44-1.3-1.1-.02.15,0,.3.07.45h0c.22.42.84.51,1.09.9-.06.1-.13.21-.2.3-.26-.44-.99-.69-1.19-1.06-.22-.41.1-1.12-.17-1.61s-1.07-.49-1.3-.92-.1-.82-.39-1.37c-.23-.42-.63-.7-1.06-.81h0c-.07-.02-.15-.03-.22-.03h0c.42.14.8.43,1.03.86h0c.28.52.13.97.4,1.48s1.04.46,1.29.93-.1,1.18.16,1.66c.24.44.98.61,1.27,1.13-.08.11-.17.21-.27.31-.22-.56-1.08-.8-1.31-1.23-.25-.47.12-1.19-.15-1.7s-1-.42-1.28-.94-.07-1.01-.38-1.58c-.24-.45-.67-.73-1.13-.81h0s-.03,0-.03,0c-.04,0-.05.03-.02.05.36.14.67.4.87.77,0,.02.02.03.03.05h0c.28.52.09,1.18.36,1.69.32.6.99.47,1.25.96s-.13,1.22.15,1.74c.26.49,1.13.72,1.33,1.33-.1.09-.2.18-.31.27-.27-.76-1.1-.96-1.35-1.41-.27-.5.13-1.28-.13-1.76-.25-.46-.78-.36-1.09-.8-.04-.05-.11-.07-.16-.04,0,0-.01,0-.02.01h0c-.09.1-.21.2-.35.29h0c-.15.07-.3.12-.45.14h.01s-.01,0-.02,0c-.06.03-.08.1-.06.16h0c.19.5-.18.89.06,1.35.26.48,1.13.59,1.4,1.08.25.46-.05,1.27.43,1.91-.13.04-.26.08-.39.11-.4-.51-.11-1.36-.37-1.85-.28-.52-1.11-.59-1.37-1.09s.21-.97-.11-1.58c-.27-.51-.93-.71-1.21-1.24,0-.01-.02-.03-.03-.05-.2-.37-.24-.77-.16-1.15h0s-.03-.05-.05-.01v.03c-.2.44-.2.95.04,1.4h0c.31.58.83.67,1.11,1.19s-.19,1.08.08,1.59,1.08.59,1.34,1.07c.23.43-.04,1.28.31,1.77-.13.02-.27.04-.41.05-.27-.53,0-1.24-.24-1.68-.26-.48-1.04-.58-1.3-1.05s.21-1.08-.06-1.59-.73-.63-1.01-1.15h0c-.23-.43-.27-.9-.15-1.33h0c-.05.07-.08.14-.1.21h0c-.15.42-.13.9.09,1.33h0c.3.55.69.65.92,1.08s-.21,1.1.05,1.59,1.03.61,1.25,1.03c.2.37,0,1.12.23,1.58-.12,0-.24,0-.36,0-.19-.43.08-.99-.14-1.41-.09-.14-.2-.24-.34-.31h0c.49.47,0,1.17.2,1.7-.17-.02-.33-.04-.49-.07,0-.14.03-.27.08-.38h0c-.07-.03-.14-.06-.21-.09-.07.13-.11.28-.11.42h0c-.15-.03-.29-.07-.43-.11.01-.18.07-.35.18-.5h0c-.07-.05-.14-.09-.21-.14-.13.16-.21.35-.23.54h0c-.14-.05-.27-.1-.41-.17.09-.17.08-.46.33-.61.05.04.1.08.15.12.05.04.12.05.17.02,0,0,.01,0,.02-.01h0c.33-.22.55-.55.65-.91h0c-.23-.12-.44-.31-.6-.54h0c-.24-.45.19-1.15-.04-1.58s-.58-.56-.83-1.02c-.21-.43-.25-.89-.15-1.32h0c-.04.08-.07.15-.09.23h0c-.12.41-.09.86.11,1.27h0c.26.5.56.6.76.96.18.34-.28,1.19.05,1.6-.1.31-.32.59-.63.76h0c.07.08.15.16.23.24-.28.17-.28.49-.39.66-.14-.07-.27-.15-.4-.24.25-.17.14-.54.52-.71-.07-.08-.13-.16-.19-.24-.43.2-.34.6-.61.76-.13-.09-.25-.19-.37-.3l.73-.84-.06-.11c-.04-.07-.07-.14-.1-.21-.48.24-.4.72-.83.9-.11-.11-.21-.22-.31-.34.55-.21.5-.75.97-1-.05-.16-.09-.3-.12-.44v.03c-.57.28-.5.87-1.1,1.08-.08-.11-.15-.22-.22-.33.68-.27.63-.92,1.25-1.17-.02-.19-.03-.36-.03-.53v.02c-.8.26-.72,1-1.44,1.28-1.33-2.66-.31-5.9,2.31-7.31s5.89-.47,7.37,2.1h0c-.63.46-1.2-.01-1.86.51.12.08.26.17.39.28l.02.02c.55-.38,1.07.02,1.67-.39h0Zm-5.33,1.68c-.06.03-.08.02-.12.04-.05.03-.08.08-.1.13h0s.02.02.04.03h0c.09-.03.16,0,.26-.06s.11-.12.19-.18c0-.02,0-.03,0-.05h0c-.05-.02-.11-.01-.16.01h0s-.04.05-.1.08h0Zm-.19.49s-.02.03-.02.05h0c.14.02.31.16.52.05s.19-.33.25-.46c-.01-.01-.03-.02-.05-.01h0c-.09.07-.19.14-.31.21,0,0-.02.01-.03.01h0s-.02,0-.03.01c-.11.06-.23.11-.35.15h.01s0,0,0,0Zm-.45-2.85c-.16.05-.34.13-.51.22s-.33.2-.48.32h.02s-.04-.01-.03-.04c.01-.02.3-.65.3-.65l.71.11s.03.03,0,.04Z"/>
    </g>
    <animateTransform
      attributeName="transform"
      type="translate"
      values="0,20;"
      begin="0s;Gend.end"
      dur="0s"/>
    <animateTransform
      attributeName="transform"
      type="translate"
      values="0,20;0,-8;0,0;"
      begin="Gstart.end"
      dur="0.8s"
      fill="freeze"/>
  </g>
  <g id="q1">
    <g>
      <circle class="cls-47" cx="71.94" cy="60.62" r="8.16"/>
      <path class="cls-26" d="m66.83,56.25l-.83-.71c1.28-1.49,3.05-2.44,4.99-2.68l.13,1.08c-1.67.2-3.19,1.02-4.29,2.3Z"/>
      <path class="cls-26" d="m66.01,57.44l-.96-.52c.15-.28.32-.55.5-.81l.89.63c-.16.22-.3.45-.43.69Z"/>
      <circle class="cls-46" cx="71.94" cy="60.62" r="6.25"/>
      <path class="cls-11" d="m67.2,61.54c0-3.45,2.8-6.25,6.25-6.25.87,0,1.69.18,2.45.5-1.08-.88-2.46-1.41-3.96-1.41-3.45,0-6.25,2.8-6.25,6.25,0,2.58,1.57,4.8,3.8,5.75-1.4-1.15-2.29-2.89-2.29-4.83Z"/>
      <g>
        <path class="cls-11" d="m72.58,65.55h-.67v-.92c-1.23-.1-2.02-.7-2.37-1.79l1.07-.25c.19.7.63,1.08,1.3,1.13v-1.97c-.88-.2-1.45-.46-1.72-.77-.27-.31-.4-.68-.4-1.11,0-1.12.7-1.77,2.11-1.94v-.72h.67v.72c1.03.13,1.68.64,1.96,1.53l-1.01.21c-.17-.51-.49-.79-.95-.83v1.74c.65.19,1.09.33,1.31.43.23.1.43.29.61.58.18.29.27.63.27,1.02,0,.55-.19,1.01-.56,1.38-.37.37-.92.58-1.63.64v.92Zm-.67-6.71c-.29,0-.53.08-.72.22-.19.14-.29.35-.29.63,0,.47.34.74,1.02.83v-1.67Zm.67,4.87c.31,0,.57-.09.78-.27.21-.18.32-.41.32-.7,0-.48-.37-.8-1.1-.93v1.91Z"/>
        <path class="cls-21" d="m72.25,64.96h-.67v-.92c-1.23-.1-2.02-.7-2.37-1.79l1.07-.25c.19.7.63,1.08,1.3,1.13v-1.97c-.88-.2-1.45-.46-1.72-.77-.27-.31-.4-.68-.4-1.11,0-1.12.7-1.77,2.11-1.94v-.72h.67v.72c1.03.13,1.68.64,1.96,1.53l-1.01.21c-.17-.51-.49-.79-.95-.83v1.74c.65.19,1.09.33,1.31.43.23.1.43.29.61.58.18.29.27.63.27,1.02,0,.55-.19,1.01-.56,1.38-.37.37-.92.58-1.63.64v.92Zm-.67-6.71c-.29,0-.53.08-.72.22-.19.14-.29.35-.29.63,0,.47.34.74,1.02.83v-1.67Zm.67,4.87c.31,0,.57-.09.78-.27.21-.18.32-.41.32-.7,0-.48-.37-.8-1.1-.93v1.91Z"/>
      </g>
    </g>
    <animateTransform
      attributeName="transform"
      type="translate"
      values="0,20;"
      begin="0s;Gend.end"
      dur="0s"/>
    <animateTransform
      attributeName="transform"
      type="translate"
      values="0,20;0,-8;0,0;"
      begin="Gstart.end"
      dur="0.8s"
      fill="freeze"/>
  </g>
  <g id="q2">
    <g>
      <circle class="cls-47" cx="83.01" cy="60.62" r="12.12"/>
      <path class="cls-26" d="m75.42,54.13l-1.23-1.05c1.9-2.21,4.53-3.63,7.41-3.97l.19,1.6c-2.48.3-4.74,1.51-6.38,3.42Z"/>
      <path class="cls-26" d="m74.21,55.89l-1.42-.77c.22-.41.47-.81.74-1.2l1.32.93c-.23.33-.45.68-.64,1.03Z"/>
      <circle class="cls-46" cx="83.01" cy="60.62" r="9.28"/>
      <path class="cls-11" d="m75.98,61.99c0-5.12,4.15-9.28,9.28-9.28,1.29,0,2.52.26,3.63.74-1.6-1.31-3.65-2.1-5.88-2.1-5.12,0-9.28,4.15-9.28,9.28,0,3.84,2.33,7.13,5.65,8.54-2.08-1.7-3.4-4.29-3.4-7.18Z"/>
      <g>
        <path class="cls-11" d="m83.96,67.95h-1v-1.37c-1.83-.15-3-1.04-3.52-2.66l1.59-.37c.29,1.04.93,1.6,1.93,1.68v-2.92c-1.31-.3-2.16-.68-2.55-1.14-.39-.46-.59-1.01-.59-1.65,0-1.66,1.05-2.62,3.14-2.88v-1.07h1v1.07c1.53.2,2.5.95,2.9,2.27l-1.5.32c-.26-.76-.72-1.17-1.4-1.23v2.58c.97.28,1.62.49,1.95.64.33.15.64.44.91.87.27.43.4.93.4,1.51,0,.82-.28,1.5-.83,2.04-.56.54-1.36.86-2.42.95v1.37Zm-1-9.96c-.43,0-.79.11-1.08.32-.29.21-.43.52-.43.93,0,.69.5,1.1,1.51,1.24v-2.49Zm1,7.24c.46,0,.85-.14,1.16-.41.31-.27.47-.61.47-1.04,0-.72-.54-1.18-1.63-1.38v2.83Z"/>
        <path class="cls-21" d="m83.48,67.06h-1v-1.37c-1.83-.15-3-1.04-3.52-2.66l1.59-.37c.29,1.04.93,1.6,1.93,1.68v-2.92c-1.31-.3-2.16-.68-2.55-1.14-.39-.46-.59-1.01-.59-1.65,0-1.66,1.05-2.62,3.14-2.88v-1.07h1v1.07c1.53.2,2.5.95,2.9,2.27l-1.5.32c-.26-.76-.72-1.17-1.4-1.23v2.58c.97.28,1.62.49,1.95.64.33.15.64.44.91.87.27.43.4.93.4,1.51,0,.82-.28,1.5-.83,2.04-.56.54-1.36.86-2.42.95v1.37Zm-1-9.96c-.43,0-.79.11-1.08.32-.29.21-.43.52-.43.93,0,.69.5,1.1,1.51,1.24v-2.49Zm1,7.24c.46,0,.85-.14,1.16-.41.31-.27.47-.61.47-1.04,0-.72-.54-1.18-1.63-1.38v2.83Z"/>
      </g>
    </g>
    <animateTransform
      attributeName="transform"
      type="translate"
      values="0,20;"
      begin="0s;Gend.end"
      dur="0s"/>
    <animateTransform
      attributeName="transform"
      type="translate"
      values="0,20;0,-12;0,0;"
      begin="Gstart.end"
      dur="1s"
      fill="freeze"/>
  </g>
  <g id="c">
    <g>
      <circle class="cls-47" cx="30.43" cy="87.41" r="20.26"/>
      <path class="cls-26" d="m17.74,76.55l-2.05-1.76c3.17-3.7,7.57-6.06,12.39-6.64l.32,2.68c-4.15.5-7.93,2.53-10.67,5.72Z"/>
      <path class="cls-26" d="m15.72,79.5l-2.38-1.28c.37-.69.79-1.36,1.24-2l2.21,1.56c-.39.55-.75,1.13-1.07,1.72Z"/>
      <circle class="cls-46" cx="30.43" cy="87.41" r="15.52"/>
      <path class="cls-11" d="m18.67,89.69c0-8.57,6.95-15.52,15.52-15.52,2.15,0,4.21.44,6.07,1.23-2.68-2.19-6.1-3.51-9.83-3.51-8.57,0-15.52,6.95-15.52,15.52,0,6.41,3.89,11.92,9.44,14.28-3.47-2.85-5.69-7.17-5.69-12Z"/>
      <g>
        <path class="cls-11" d="m31.81,80.35c2.36,0,5.53,1.39,7.07,3.11l-2.5,2.38c-.97-1.17-3.02-2.12-4.57-2.12h-.02c-3.22.01-5.83,2.54-5.83,5.65s2.62,5.65,5.85,5.65c1.55,0,3.6-.95,4.57-2.12l2.5,2.38c-1.54,1.72-4.71,3.11-7.07,3.11-5.17,0-9.36-4.04-9.36-9.03s4.19-9.02,9.35-9.02h0Z"/>
        <path class="cls-21" d="m31,78.87c2.36,0,5.53,1.39,7.07,3.11l-2.5,2.38c-.97-1.17-3.02-2.12-4.57-2.12h-.02c-3.22.01-5.83,2.54-5.83,5.65s2.62,5.65,5.85,5.65c1.55,0,3.6-.95,4.57-2.12l2.5,2.38c-1.54,1.72-4.71,3.11-7.07,3.11-5.17,0-9.36-4.04-9.36-9.03s4.19-9.02,9.35-9.02h0Z"/>
      </g>
    </g>
  </g>
  <g id="g底">
    <g>
      <g>
        <g>
          <path class="cls-27" d="m71.92,92.48c-4.41,0-7.99-3.08-7.99-6.87v-21.54h50.95v21.54c0,3.79-3.59,6.87-7.99,6.87h-34.97Z"/>
          <path class="cls-18" d="m113.88,65.07v20.54c0,3.24-3.13,5.87-6.99,5.87h-34.97c-3.86,0-6.99-2.63-6.99-5.87v-20.54h48.95m2-2h-52.95v22.54c0,4.34,4.03,7.87,8.99,7.87h34.97c4.96,0,8.99-3.53,8.99-7.87v-22.54h0Z"/>
        </g>
        <path class="cls-32" d="m105.93,65.07v20.54c0,3.24-3.13,5.87-6.99,5.87h7.95c3.86,0,6.99-2.63,6.99-5.87v-20.54h-7.95Z"/>
      </g>
      <g>
        <rect class="cls-36" x="82.89" y="64.84" width="11.92" height="27.64"/>
        <path class="cls-18" d="m93.81,65.84v25.64h-9.92v-25.64h9.92m2-2h-13.92v29.64h13.92v-29.64h0Z"/>
      </g>
    </g>
  </g>
  <g id="g盖" style="transform-origin: 150px 60px">
    <g>
      <g>
        <g>
          <g>
            <path class="cls-36" d="m87.38,55.68c-8.68,0-20.23-.9-20.23-8.73,0-3.5.81-6.2,2.41-8.01,1.61-1.82,4.01-2.75,7.12-2.75,4.46,0,7.95,2.77,10.68,8.47,1.1,2.44,2,4.97,2.67,7.55l.96,3.47h-3.62Zm-14.74-7.32s1.03,1.44,10.72,1.76c-.28-.49-.58-.96-.89-1.42l-.6-.86c-1.28-1.57-3.17-2.54-5.22-2.65-3.45,0-4.01.94-4.01,3.17h0Z"/>
            <path class="cls-18" d="m76.68,37.2c4.44,0,7.52,3.18,9.78,7.9,1.08,2.38,1.95,4.84,2.61,7.37h0s.62,2.22.62,2.22h-2.3c-12.61,0-19.23-2.26-19.23-7.73,0-6.58,2.92-9.76,8.53-9.76m8.35,13.96c-.48-1.06-1.06-2.07-1.73-3.03h0s0,0,0,0c-1.42-2.33-3.9-3.81-6.63-3.94-3.61,0-5.04,1.03-5.04,4.17,0,1.54,4.29,2.64,13.38,2.8m-8.35-15.96c-3.41,0-6.05,1.04-7.87,3.09-1.77,2-2.66,4.91-2.66,8.67,0,8.72,12.12,9.73,21.23,9.73h4.93l-.7-2.54-.62-2.22c-.68-2.6-1.59-5.18-2.71-7.66-2.89-6.04-6.79-9.07-11.6-9.07h0Zm-3.03,12.6c.05-1.12.39-1.6,2.98-1.61,1.75.1,3.36.92,4.46,2.26l.41.58c-5.29-.29-7.21-.93-7.84-1.23h0Z"/>
          </g>
          <g>
            <path class="cls-36" d="m87.81,55.68l.97-3.48c.67-2.56,1.56-5.09,2.66-7.51,2.74-5.72,6.24-8.49,10.69-8.49s9.53,1.87,9.53,10.76c0,7.82-11.55,8.73-20.23,8.73h-3.62Zm8.52-6.99c-.32.46-.62.93-.89,1.42,9.84-.32,10.73-1.8,10.74-1.82-.01-2.17-.57-3.1-4.05-3.1-2.03.1-3.93,1.07-5.21,2.66l-.58.84Z"/>
            <path class="cls-18" d="m102.13,37.2c5.61,0,8.53,3.18,8.53,9.76,0,5.46-6.63,7.73-19.23,7.73h-2.3l.62-2.22c.66-2.53,1.53-4.99,2.61-7.37,2.26-4.72,5.34-7.9,9.78-7.9m-6.63,10.93h0c-.66.95-1.24,1.97-1.73,3.03,9.09-.16,13.38-1.25,13.38-2.8,0-3.14-1.43-4.17-5.04-4.17-2.73.13-5.21,1.61-6.63,3.94m6.63-12.93c-4.81,0-8.71,3.04-11.58,9.03-1.14,2.52-2.05,5.1-2.74,7.73l-.61,2.19-.7,2.54h4.93c9.11,0,21.23-1.01,21.23-9.73,0-7.58-3.74-11.76-10.53-11.76h0Zm-4.4,13.25c1.1-1.33,2.7-2.15,4.45-2.25,2.59,0,2.93.49,2.98,1.61-.63.3-2.55.95-7.84,1.23l.41-.59h0Z"/>
          </g>
          <g>
            <path class="cls-37" d="m68.42,64.84c-4.41,0-7.99-3-7.99-6.69s3.59-6.69,7.99-6.69h41.96c4.41,0,7.99,3,7.99,6.69s-3.59,6.69-7.99,6.69h-41.96Z"/>
            <path class="cls-18" d="m68.42,52.47h0s41.96,0,41.96,0c3.86,0,6.99,2.55,6.99,5.69s-3.13,5.69-6.99,5.69h-41.96c-3.86,0-6.99-2.55-6.99-5.69,0-3.14,3.13-5.69,6.99-5.69m0-2c-4.96,0-8.99,3.45-8.99,7.69,0,4.24,4.03,7.69,8.99,7.69h41.96c4.96,0,8.99-3.45,8.99-7.69s-4.03-7.69-8.99-7.69h-41.96Z"/>
          </g>
        </g>
        <path class="cls-2" d="m110.38,52.47h-4.5v11.37h4.5c3.86,0,6.99-2.55,6.99-5.69,0-3.14-3.13-5.69-6.99-5.69Z"/>
      </g>
      <g>
        <rect class="cls-36" x="83.17" y="51.47" width="11.92" height="13.37"/>
        <path class="cls-18" d="m94.09,52.47v11.37h-9.92v-11.37h9.92m2-2h-13.92v15.37h13.92v-15.37h0Z"/>
      </g>
    </g>
    <animateTransform
      id="Gstart"
      attributeName="transform"
      type="rotate"
      values="0,0,0;25,0,0;"
      begin="0s;Gend.end + 1s"
      dur="0.3s"
      fill="freeze"/>
    <animateTransform
      id="Gend"
      attributeName="transform"
      type="rotate"
      values="25,0,0;0,0,0;"
      begin="Gstart.end + 1s"
      dur="0.3s"
      fill="freeze"/>
  </g>
  <g id="_箭头" data-name="箭头">
    <path class="cls-12" d="m33,65.19c-.7,0-1.32-.49-1.47-1.2-.13-.64-3.11-15.85,4.21-22.47,3.62-3.27,8.97-3.84,15.92-1.69.79.24,1.23,1.08.99,1.88s-1.08,1.24-1.88.99c-5.87-1.81-10.25-1.46-13.02,1.05-6.07,5.49-3.31,19.51-3.28,19.65.16.81-.36,1.6-1.17,1.77-.1.02-.2.03-.3.03Z"/>
    <path class="cls-12" d="m51.28,44.64l4.35-.95c.66-.14.94-.93.51-1.46l-2.79-3.47c-.45-.55-1.33-.4-1.56.27l-1.56,4.42c-.24.67.36,1.34,1.05,1.19Z"/>
  </g>
  <g id="s1">
    <path class="cls-55" d="m43.87,115.32l-1.68-.97-.97-1.68c-.12-.2-.4-.2-.52,0l-.97,1.68-1.68.97c-.2.12-.2.4,0,.52l1.68.97.97,1.68c.12.2.4.2.52,0l.97-1.68,1.68-.97c.2-.12.2-.41,0-.52Z"/>
  </g>
  <g id="s2">
    <path class="cls-55" d="m18.22,63.43l-1.68-.97-.97-1.68c-.12-.2-.4-.2-.52,0l-.97,1.68-1.68.97c-.2.12-.2.4,0,.52l1.68.97.97,1.68c.12.2.4.2.52,0l.97-1.68,1.68-.97c.2-.12.2-.41,0-.52Z"/>
  </g>
  <g id="s3">
    <path class="cls-55" d="m126.4,80.65l-1.68-.97-.97-1.68c-.12-.2-.4-.2-.52,0l-.97,1.68-1.68.97c-.2.12-.2.4,0,.52l1.68.97.97,1.68c.12.2.4.2.52,0l.97-1.68,1.68-.97c.2-.12.2-.41,0-.52Z"/>
  </g>
  <g id="s4">
    <path class="cls-55" d="m32.99,17.01l-1.46-.46-.57-1.58c-.09-.15-.31-.15-.4,0l-.57,1.58-1.46.46c-.15.09-.15.31,0,.4l1.46.46.57,2.5c.09.15.31.15.4,0l.57-2.5,1.46-.46c.15-.09.15-.31,0-.4Z"/>
  </g>
  <g id="s5">
    <path class="cls-55" d="m45.8,22.68l-1.91-.6-.75-2.06c-.12-.2-.41-.2-.52,0l-.74,2.06-1.91.6c-.2.12-.2.41,0,.52l1.91.59.74,3.26c.12.2.41.2.52,0l.75-3.26,1.91-.59c.2-.12.2-.41,0-.52Z"/>
  </g>
</svg>