<?xml version="1.0" encoding="UTF-8"?>
<svg xmlns="http://www.w3.org/2000/svg" viewBox="0 0 132 132">
  <defs>
    <style>
      .cls-1 {
        fill: #f4a61c;
      }

      .cls-2 {
        fill: #312b26;
      }

      .cls-3 {
        fill: #d1871c;
      }

      .cls-4 {
        fill: #fffdf0;
      }

      .cls-5 {
        fill: #ff8d32;
      }

      .cls-6 {
        fill: #d66a21;
      }

      .cls-7 {
        fill: #fdc72f;
      }

      .cls-8 {
        fill: #fbe945;
      }

      .cls-9 {
        fill: #ffce80;
      }

      .cls-10 {
        fill: #fffcfa;
      }

      .cls-11 {
        fill: #e2cc2b;
      }
    </style>
  </defs>
  <g id="bg">
    <rect class="cls-10" width="132" height="132" rx="20" ry="20"/>
  </g>
  <g id="q1">
    <g>
      <circle class="cls-8" cx="23.75" cy="55.23" r="9.11"/>
      <path class="cls-4" d="m18.05,50.34l-.92-.79c1.43-1.67,3.41-2.73,5.57-2.99l.15,1.21c-1.86.23-3.57,1.14-4.8,2.57Z"/>
      <path class="cls-4" d="m17.14,51.67l-1.07-.58c.17-.31.35-.61.56-.9l.99.7c-.17.25-.34.51-.48.77Z"/>
      <circle class="cls-7" cx="23.75" cy="55.23" r="6.98"/>
      <path class="cls-1" d="m18.46,56.25c0-3.85,3.12-6.98,6.98-6.98.97,0,1.89.2,2.73.55-1.2-.99-2.74-1.58-4.42-1.58-3.85,0-6.98,3.12-6.98,6.98,0,2.89,1.75,5.36,4.25,6.42-1.56-1.28-2.56-3.22-2.56-5.4Z"/>
      <g>
        <path class="cls-1" d="m24.47,60.73h-.75v-1.03c-1.38-.11-2.26-.78-2.65-2l1.19-.28c.21.78.7,1.2,1.45,1.26v-2.2c-.98-.23-1.62-.51-1.92-.86-.3-.35-.44-.76-.44-1.24,0-1.25.79-1.97,2.36-2.16v-.8h.75v.8c1.15.15,1.88.72,2.18,1.71l-1.13.24c-.19-.57-.54-.88-1.06-.92v1.94c.73.21,1.22.37,1.47.48.25.11.48.33.68.65.2.32.3.7.3,1.14,0,.62-.21,1.13-.63,1.54-.42.41-1.03.65-1.82.72v1.03Zm-.75-7.49c-.32,0-.59.08-.81.24-.22.16-.33.39-.33.7,0,.52.38.83,1.13.93v-1.87Zm.75,5.44c.35,0,.64-.11.88-.31.24-.2.35-.46.35-.78,0-.54-.41-.89-1.23-1.04v2.13Z"/>
        <path class="cls-3" d="m24.11,60.06h-.75v-1.03c-1.38-.11-2.26-.78-2.65-2l1.19-.28c.21.78.7,1.2,1.45,1.26v-2.2c-.98-.23-1.62-.51-1.92-.86-.3-.35-.44-.76-.44-1.24,0-1.25.79-1.97,2.36-2.16v-.8h.75v.8c1.15.15,1.88.72,2.18,1.71l-1.13.24c-.19-.57-.54-.88-1.06-.92v1.94c.73.21,1.22.37,1.47.48.25.11.48.33.68.65.2.32.3.7.3,1.14,0,.62-.21,1.13-.63,1.54-.42.41-1.03.65-1.82.72v1.03Zm-.75-7.49c-.32,0-.59.08-.81.24-.22.16-.33.39-.33.7,0,.52.38.83,1.13.93v-1.87Zm.75,5.44c.35,0,.64-.11.88-.31.24-.2.35-.46.35-.78,0-.54-.41-.89-1.23-1.04v2.13Z"/>
      </g>
    </g>
        <animateTransform
      attributeName="transform"
      type="translate"
      values="0,0;0,-5;0,0;"
      begin="0s"
      dur="1.5s"
      repeatCount="indefinite"/>
  </g>
  <g id="q2">
    <g>
      <circle class="cls-8" cx="52.42" cy="20.53" r="9.84"/>
      <path class="cls-4" d="m46.26,15.25l-1-.85c1.54-1.8,3.68-2.95,6.02-3.23l.16,1.3c-2.01.24-3.85,1.23-5.18,2.78Z"/>
      <path class="cls-4" d="m45.28,16.69l-1.16-.62c.18-.33.38-.66.6-.97l1.07.76c-.19.27-.36.55-.52.84Z"/>
      <circle class="cls-7" cx="52.42" cy="20.53" r="7.54"/>
      <path class="cls-1" d="m46.71,21.64c0-4.16,3.37-7.54,7.54-7.54,1.05,0,2.04.21,2.95.6-1.3-1.07-2.96-1.71-4.78-1.71-4.16,0-7.54,3.37-7.54,7.54,0,3.12,1.89,5.79,4.59,6.94-1.69-1.38-2.76-3.48-2.76-5.83Z"/>
      <g>
        <path class="cls-1" d="m53.2,26.48h-.81v-1.11c-1.49-.12-2.44-.85-2.86-2.16l1.29-.3c.23.85.75,1.3,1.57,1.36v-2.37c-1.06-.24-1.75-.55-2.07-.93-.32-.37-.48-.82-.48-1.34,0-1.35.85-2.13,2.55-2.34v-.87h.81v.87c1.24.16,2.03.78,2.36,1.85l-1.22.26c-.21-.62-.59-.95-1.14-1v2.1c.78.22,1.31.4,1.58.52.27.12.52.35.74.7.22.35.33.76.33,1.23,0,.67-.23,1.22-.68,1.66-.45.44-1.11.7-1.97.78v1.11Zm-.81-8.09c-.35,0-.64.09-.87.26-.23.17-.35.42-.35.75,0,.56.41.9,1.22,1v-2.02Zm.81,5.88c.38,0,.69-.11.95-.33.25-.22.38-.5.38-.85,0-.58-.44-.96-1.33-1.12v2.3Z"/>
        <path class="cls-3" d="m52.8,25.76h-.81v-1.11c-1.49-.12-2.44-.85-2.86-2.16l1.29-.3c.23.85.75,1.3,1.57,1.36v-2.37c-1.06-.24-1.75-.55-2.07-.93-.32-.37-.48-.82-.48-1.34,0-1.35.85-2.13,2.55-2.34v-.87h.81v.87c1.24.16,2.03.78,2.36,1.85l-1.22.26c-.21-.62-.59-.95-1.14-1v2.1c.78.22,1.31.4,1.58.52.27.12.52.35.74.7.22.35.33.76.33,1.23,0,.67-.23,1.22-.68,1.66-.45.44-1.11.7-1.97.78v1.11Zm-.81-8.09c-.35,0-.64.09-.87.26-.23.17-.35.42-.35.75,0,.56.41.9,1.22,1v-2.02Zm.81,5.88c.38,0,.69-.11.95-.33.25-.22.38-.5.38-.85,0-.58-.44-.96-1.33-1.12v2.3Z"/>
      </g>
    </g>
            <animateTransform
      attributeName="transform"
      type="translate"
      values="0,0;0,5;0,0;"
      begin="0s"
      dur="1.5s"
      repeatCount="indefinite"/>
  </g>
  <g id="q3">
    <g>
      <circle class="cls-8" cx="65.51" cy="51.71" r="11.99"/>
      <path class="cls-4" d="m58,45.28l-1.21-1.04c1.88-2.19,4.48-3.59,7.33-3.93l.19,1.59c-2.45.3-4.69,1.5-6.31,3.38Z"/>
      <path class="cls-4" d="m56.8,47.03l-1.41-.76c.22-.41.47-.8.73-1.18l1.3.92c-.23.33-.44.67-.63,1.02Z"/>
      <circle class="cls-7" cx="65.51" cy="51.71" r="9.18"/>
      <path class="cls-1" d="m58.55,53.05c0-5.07,4.11-9.18,9.18-9.18,1.27,0,2.49.26,3.59.73-1.58-1.3-3.61-2.08-5.82-2.08-5.07,0-9.18,4.11-9.18,9.18,0,3.8,2.3,7.05,5.59,8.45-2.05-1.68-3.36-4.24-3.36-7.1Z"/>
      <g>
        <path class="cls-1" d="m66.45,58.95h-.99v-1.35c-1.81-.15-2.97-1.03-3.48-2.64l1.57-.37c.28,1.03.92,1.58,1.91,1.66v-2.89c-1.29-.3-2.13-.67-2.52-1.13-.39-.46-.58-1-.58-1.64,0-1.64,1.04-2.59,3.11-2.85v-1.05h.99v1.05c1.52.2,2.47.94,2.87,2.25l-1.48.31c-.25-.75-.72-1.16-1.39-1.22v2.55c.96.27,1.6.48,1.93.63.33.15.63.43.9.86.27.42.4.92.4,1.49,0,.81-.28,1.48-.83,2.02-.55.54-1.35.85-2.4.94v1.35Zm-.99-9.85c-.42,0-.78.11-1.06.32-.29.21-.43.51-.43.92,0,.68.5,1.09,1.49,1.22v-2.46Zm.99,7.16c.46,0,.84-.14,1.15-.4.31-.26.46-.61.46-1.03,0-.71-.54-1.17-1.62-1.37v2.8Z"/>
        <path class="cls-3" d="m65.97,58.07h-.99v-1.35c-1.81-.15-2.97-1.03-3.48-2.64l1.57-.37c.28,1.03.92,1.58,1.91,1.66v-2.89c-1.29-.3-2.13-.67-2.52-1.13-.39-.46-.58-1-.58-1.64,0-1.64,1.04-2.59,3.11-2.85v-1.05h.99v1.05c1.52.2,2.47.94,2.87,2.25l-1.48.31c-.25-.75-.72-1.16-1.39-1.22v2.55c.96.27,1.6.48,1.93.63.33.15.63.43.9.86.27.42.4.92.4,1.49,0,.81-.28,1.48-.83,2.02-.55.54-1.35.85-2.4.94v1.35Zm-.99-9.85c-.42,0-.78.11-1.06.32-.29.21-.43.51-.43.92,0,.68.5,1.09,1.49,1.22v-2.46Zm.99,7.16c.46,0,.84-.14,1.15-.4.31-.26.46-.61.46-1.03,0-.71-.54-1.17-1.62-1.37v2.8Z"/>
      </g>
    </g>
                <animateTransform
      attributeName="transform"
      type="translate"
      values="0,0;0,-6;0,0;"
      begin="0s"
      dur="1.5s"
      repeatCount="indefinite"/>
  </g>
  <g id="q4">
    <g>
      <circle class="cls-8" cx="84.76" cy="30.47" r="10.15"/>
      <path class="cls-4" d="m78.4,25.03l-1.03-.88c1.59-1.86,3.8-3.04,6.21-3.33l.16,1.34c-2.08.25-3.98,1.27-5.34,2.87Z"/>
      <path class="cls-4" d="m77.39,26.51l-1.19-.64c.19-.34.39-.68.62-1l1.11.78c-.19.28-.37.57-.53.86Z"/>
      <circle class="cls-7" cx="84.76" cy="30.47" r="7.78"/>
      <path class="cls-1" d="m78.87,31.62c0-4.29,3.48-7.78,7.78-7.78,1.08,0,2.11.22,3.04.62-1.34-1.1-3.06-1.76-4.93-1.76-4.29,0-7.78,3.48-7.78,7.78,0,3.21,1.95,5.97,4.73,7.16-1.74-1.43-2.85-3.59-2.85-6.02Z"/>
      <g>
        <path class="cls-1" d="m85.56,36.61h-.84v-1.15c-1.54-.13-2.52-.87-2.95-2.23l1.33-.31c.24.87.78,1.34,1.62,1.41v-2.45c-1.09-.25-1.81-.57-2.14-.96-.33-.39-.5-.85-.5-1.39,0-1.39.88-2.2,2.63-2.41v-.89h.84v.89c1.28.17,2.09.8,2.43,1.9l-1.26.27c-.21-.64-.61-.98-1.18-1.03v2.16c.81.23,1.35.41,1.63.53.28.12.53.37.76.73.22.36.34.78.34,1.26,0,.69-.23,1.26-.7,1.71-.47.45-1.14.72-2.03.8v1.15Zm-.84-8.35c-.36,0-.66.09-.9.27-.24.18-.36.44-.36.78,0,.58.42.92,1.26,1.04v-2.08Zm.84,6.06c.39,0,.71-.12.98-.34.26-.22.39-.51.39-.87,0-.6-.46-.99-1.37-1.16v2.37Z"/>
        <path class="cls-3" d="m85.15,35.87h-.84v-1.15c-1.54-.13-2.52-.87-2.95-2.23l1.33-.31c.24.87.78,1.34,1.62,1.41v-2.45c-1.09-.25-1.81-.57-2.14-.96-.33-.39-.5-.85-.5-1.39,0-1.39.88-2.2,2.63-2.41v-.89h.84v.89c1.28.17,2.09.8,2.43,1.9l-1.26.27c-.21-.64-.61-.98-1.18-1.03v2.16c.81.23,1.35.41,1.63.53.28.12.53.37.76.73.22.36.34.78.34,1.26,0,.69-.23,1.26-.7,1.71-.47.45-1.14.72-2.03.8v1.15Zm-.84-8.35c-.36,0-.66.09-.9.27-.24.18-.36.44-.36.78,0,.58.42.92,1.26,1.04v-2.08Zm.84,6.06c.39,0,.71-.12.98-.34.26-.22.39-.51.39-.87,0-.6-.46-.99-1.37-1.16v2.37Z"/>
      </g>
    </g>
                    <animateTransform
      attributeName="transform"
      type="translate"
      values="0,0;0,-6;0,0;"
      begin="0s"
      dur="1.5s"
      repeatCount="indefinite"/>
  </g>
  <g id="q5">
    <g>
      <circle class="cls-8" cx="106.18" cy="53.98" r="8.58"/>
      <path class="cls-4" d="m100.81,49.38l-.87-.74c1.34-1.57,3.21-2.57,5.25-2.81l.14,1.14c-1.75.21-3.36,1.07-4.51,2.42Z"/>
      <path class="cls-4" d="m99.95,50.63l-1.01-.54c.16-.29.33-.58.52-.85l.93.66c-.16.23-.32.48-.45.73Z"/>
      <circle class="cls-7" cx="106.18" cy="53.98" r="6.57"/>
      <path class="cls-1" d="m101.2,54.94c0-3.63,2.94-6.57,6.57-6.57.91,0,1.78.19,2.57.52-1.13-.93-2.58-1.49-4.16-1.49-3.63,0-6.57,2.94-6.57,6.57,0,2.72,1.65,5.05,4,6.05-1.47-1.2-2.41-3.03-2.41-5.08Z"/>
      <g>
        <path class="cls-1" d="m106.85,59.16h-.71v-.97c-1.3-.11-2.13-.74-2.49-1.89l1.12-.26c.2.74.66,1.13,1.36,1.19v-2.07c-.92-.21-1.53-.48-1.8-.81-.28-.33-.42-.72-.42-1.17,0-1.18.74-1.86,2.22-2.04v-.75h.71v.75c1.08.14,1.77.68,2.06,1.61l-1.06.23c-.18-.54-.51-.83-.99-.87v1.83c.68.2,1.14.35,1.38.45.24.1.45.31.64.61.19.3.29.66.29,1.07,0,.58-.2,1.06-.59,1.45-.39.38-.97.61-1.72.68v.97Zm-.71-7.05c-.3,0-.56.08-.76.23-.2.15-.31.37-.31.66,0,.49.36.78,1.07.87v-1.76Zm.71,5.12c.33,0,.6-.1.82-.29.22-.19.33-.43.33-.74,0-.51-.39-.84-1.16-.98v2.01Z"/>
        <path class="cls-3" d="m106.51,58.53h-.71v-.97c-1.3-.11-2.13-.74-2.49-1.89l1.12-.26c.2.74.66,1.13,1.36,1.19v-2.07c-.92-.21-1.53-.48-1.8-.81-.28-.33-.42-.72-.42-1.17,0-1.18.74-1.86,2.22-2.04v-.75h.71v.75c1.08.14,1.77.68,2.06,1.61l-1.06.23c-.18-.54-.51-.83-.99-.87v1.83c.68.2,1.14.35,1.38.45.24.1.45.31.64.61.19.3.29.66.29,1.07,0,.58-.2,1.06-.59,1.45-.39.38-.97.61-1.72.68v.97Zm-.71-7.05c-.3,0-.56.08-.76.23-.2.15-.31.37-.31.66,0,.49.36.78,1.07.87v-1.76Zm.71,5.12c.33,0,.6-.1.82-.29.22-.19.33-.43.33-.74,0-.51-.39-.84-1.16-.98v2.01Z"/>
      </g>
    </g>
    <animateTransform
      attributeName="transform"
      type="translate"
      values="0,0;0,6;0,0;"
      begin="0s"
      dur="1.5s"
      repeatCount="indefinite"/>
  </g>
  <g id="_钱袋" data-name="钱袋">
    <path class="cls-5" d="m91.86,104.01c0,13.58-12.36,20.48-27.61,20.48s-27.61-6.9-27.61-20.48,8.4-30.47,27.61-30.47,27.61,16.89,27.61,30.47Z"/>
    <path class="cls-6" d="m79.58,78.17c5.02,6.04,7.36,14.12,7.36,21.28,0,13.58-12.36,20.48-27.61,20.48-7.46,0-14.22-1.66-19.19-4.93,4.72,6.3,13.74,9.5,24.11,9.5,15.25,0,27.61-6.9,27.61-20.48,0-9.18-3.85-19.88-12.28-25.84Z"/>
    <path class="cls-2" d="m64.25,126.07c-17.73,0-29.17-8.66-29.17-22.06,0-7.74,2.52-15.49,6.92-21.28,3.73-4.91,10.62-10.76,22.26-10.76s18.53,5.86,22.26,10.76c4.4,5.79,6.92,13.54,6.92,21.28-.02,13.4-11.46,22.06-29.19,22.06Zm0-51.86c-19.82,0-27.02,17.94-27.02,30,0,14.49,14.55,19.63,27.02,19.63s27.02-5.14,27.02-19.63c0-12.06-7.19-30-27.02-30Z"/>
    <path class="cls-5" d="m63.94,80.77c-12.42,0-18.25-2.28-19.27-10.3-.7-5.52,3.28-8.41,6.44-4.91,2.35,2.61,2.95,4.62,5.59,4.62s5.07-6.41,8.97-6.41c4.55,0,5.67,6.52,9.18,6.47,2.99-.04,5.37-6.41,9.15-4.93,3.8,1.48,2.34,10.69-4.53,14.08-4.42,2.17-11.02,1.38-15.53,1.38Z"/>
    <path class="cls-2" d="m70.43,82.48c-1.24,0-2.46-.04-3.6-.08-1.03-.03-2-.07-2.89-.07-11.94,0-19.59-1.95-20.83-11.68-.46-3.62.81-6.69,3.24-7.81,1.97-.9,4.18-.29,5.93,1.64.66.74,1.19,1.42,1.65,2.02,1.24,1.61,1.65,2.08,2.77,2.08.49,0,1.7-1.38,2.43-2.21,1.64-1.87,3.69-4.2,6.54-4.2,3.18,0,4.99,2.3,6.45,4.15,1.14,1.45,1.88,2.33,2.71,2.32.64,0,1.71-1.09,2.57-1.96,1.71-1.72,4.05-4.08,7.18-2.86,1.82.72,2.94,2.56,3.04,5.04.17,4.01-2.34,9.39-7.46,11.92-2.84,1.41-6.39,1.7-9.74,1.7h0Zm-22.88-17.58c-.18,0-.36.04-.55.13-.96.46-1.82,2.23-1.49,5.02.88,7.36,5.52,9.85,18.38,9.85.96,0,2.01.04,3.1.08,4.01.14,8.99.31,12.29-1.42,4.02-2.11,6.05-6.66,5.92-9.88-.03-.62-.18-2.1-1.09-2.47-1.17-.49-2.26.57-3.94,2.37-1.45,1.55-2.95,3.16-4.94,3.19h-.07c-2.48,0-4-2.06-5.35-3.87-1.5-2.03-2.53-3.26-4.13-3.26-1.48,0-2.99,1.83-4.33,3.45-1.54,1.86-2.99,3.61-4.97,3.61-2.82,0-4.1-1.77-5.46-3.65-.47-.64-.95-1.31-1.56-2.02-.37-.46-1.06-1.12-1.81-1.12Z"/>
    <path class="cls-8" d="m46.78,95.38c-1.56-.56-2.37-2.29-1.82-3.84l3.86-10.76c.56-1.56,2.29-2.37,3.84-1.82,1.56.56,2.37,2.29,1.82,3.84l-3.86,10.76c-.55,1.56-2.28,2.38-3.84,1.82Z"/>
    <path class="cls-11" d="m53,86.94l1.48-4.13c.55-1.55-.26-3.28-1.82-3.84-1.55-.55-3.28.26-3.84,1.82l-1.8,5.02,5.98,1.14Z"/>
    <path class="cls-2" d="m47.79,97.12c-.51,0-1.03-.09-1.54-.27-2.38-.85-2.87-3.31-2.02-5.69l3.86-10.76c.85-2.38,2.73-3.79,5.11-2.93,2.38.85,3.08,3.14,2.23,5.52l-3.86,10.76c-.67,1.88-1.9,3.37-3.78,3.37h0Zm-.89-2.1c.87.31,1.83-.14,2.14-1.02l4.51-12.57c.31-.87-.14-1.83-1.02-2.14-.88-.31-1.83.14-2.14,1.02l-4.51,12.57c-.31.87.15,1.83,1.02,2.14Z"/>
    <path class="cls-8" d="m64.25,83.73c-11,0-20.35-2.45-20.35-5.42s1.63-4.02,3.8-3.29c2.19.74,7.11,2.13,16.55,2.13s13.98-1.34,16.55-2.13c2.57-.79,3.8.02,3.8,3.29s-9.35,5.42-20.35,5.42Z"/>
    <path class="cls-11" d="m84.6,78.3c0-3.27-1.23-4.08-3.8-3.29-1.25.39-1.15.51-3.67.94-.13.78-.23,1.59-.23,2.44,0,1.47.22,2.82.59,4.06,5.35-.92,7.11-2.12,7.11-4.15Z"/>
    <path class="cls-2" d="m64.25,85.3c-7.59,0-21.92-1.46-21.92-6.99,0-2.53,1-3.78,1.82-4.37,1.08-.78,2.51-.92,4.05-.4,4.03,1.36,9.43,2.05,16.05,2.05,9.38,0,13.74-1.34,16.09-2.06.66-.2,2.67-.82,4.2.32,1.47,1.08,1.64,3.08,1.64,4.47,0,6.79-19.69,6.99-21.93,6.99Zm-18.41-9.81c-.2,0-.36.06-.48.16-.33.3-.54,1.19-.54,2.38.4,1.68,7.61,5.02,19.43,5.02,13.45,0,19.43-3.64,19.43-5.02,0-2.14-.37-2.54-.37-2.55,0,0-.3-.23-1.46.21-2.59,1-7.41,2.87-17.6,2.87-7.19,0-13.13-.97-17.64-2.89-.29-.12-.56-.18-.78-.18Z"/>
    <path class="cls-2" d="m77.71,92.48c-.65,0-1.26-.41-1.48-1.06l-2.5-7.18c-.28-.82.14-1.71.97-2,.82-.29,1.71.14,2,.97l2.5,7.18c.28.82-.14,1.71-.97,2-.17.05-.35.09-.52.09h0Z"/>
    <g id="_图层_3" data-name="图层 3">
      <g>
        <circle class="cls-8" cx="63.96" cy="103.34" r="11.05"/>
        <path class="cls-4" d="m57.04,97.42l-1.12-.96c1.73-2.02,4.13-3.31,6.76-3.62l.18,1.46c-2.26.27-4.33,1.38-5.82,3.12Z"/>
        <path class="cls-4" d="m55.94,99.02l-1.3-.7c.2-.38.43-.74.68-1.09l1.2.85c-.21.3-.41.62-.58.94Z"/>
        <circle class="cls-7" cx="63.96" cy="103.34" r="8.46"/>
        <path class="cls-1" d="m57.55,104.58c0-4.67,3.79-8.46,8.46-8.46,1.18,0,2.29.24,3.31.67-1.46-1.2-3.33-1.92-5.36-1.92-4.67,0-8.46,3.79-8.46,8.46,0,3.5,2.12,6.5,5.15,7.79-1.89-1.55-3.1-3.91-3.1-6.55Z"/>
        <g>
          <path class="cls-1" d="m64.83,110.02h-.91v-1.25c-1.67-.14-2.74-.95-3.21-2.43l1.45-.34c.26.95.85,1.46,1.76,1.53v-2.67c-1.19-.27-1.97-.62-2.33-1.04-.36-.42-.54-.92-.54-1.51,0-1.52.95-2.39,2.86-2.63v-.97h.91v.97c1.4.18,2.28.87,2.65,2.07l-1.37.29c-.23-.69-.66-1.07-1.28-1.12v2.36c.88.25,1.47.45,1.78.58.31.13.58.4.83.79.24.39.37.85.37,1.38,0,.75-.25,1.37-.76,1.86-.51.49-1.24.79-2.21.87v1.25Zm-.91-9.08c-.39,0-.72.1-.98.29-.26.19-.39.47-.39.85,0,.63.46,1.01,1.37,1.13v-2.27Zm.91,6.6c.42,0,.78-.13,1.06-.37.29-.24.43-.56.43-.95,0-.66-.5-1.08-1.49-1.26v2.58Z"/>
          <path class="cls-3" d="m64.39,109.21h-.91v-1.25c-1.67-.14-2.74-.95-3.21-2.43l1.45-.34c.26.95.85,1.46,1.76,1.53v-2.67c-1.19-.27-1.97-.62-2.33-1.04-.36-.42-.54-.92-.54-1.51,0-1.52.95-2.39,2.86-2.63v-.97h.91v.97c1.4.18,2.28.87,2.65,2.07l-1.37.29c-.23-.69-.66-1.07-1.28-1.12v2.36c.88.25,1.47.45,1.78.58.31.13.58.4.83.79.24.39.37.85.37,1.38,0,.75-.25,1.37-.76,1.86-.51.49-1.24.79-2.21.87v1.25Zm-.91-9.08c-.39,0-.72.1-.98.29-.26.19-.39.47-.39.85,0,.63.46,1.01,1.37,1.13v-2.27Zm.91,6.6c.42,0,.78-.13,1.06-.37.29-.24.43-.56.43-.95,0-.66-.5-1.08-1.49-1.26v2.58Z"/>
        </g>
      </g>
    </g>
  </g>
  <g id="s1" style="transform-origin: 27.64px 31.9px">  
    <path class="cls-9" d="m30.58,31.53l-1.68-.97-.97-1.68c-.12-.2-.4-.2-.52,0l-.97,1.68-1.68.97c-.2.12-.2.4,0,.52l1.68.97.97,1.68c.12.2.4.2.52,0l.97-1.68,1.68-.97c.2-.12.2-.41,0-.52Z"/>
    <animateTransform
      id="star1"
      attributeName="transform"
      type="scale"
      values="0;1;"
      begin="0s;star111.end"
      dur="1s"/>
    <animateTransform
      id="star11"
      attributeName="transform"
      type="rotate"
      values="0,0,0;180,0,0"
      begin="star1.end"
      dur="0.5s"/>
    <animateTransform
      id="star111"
      attributeName="transform"
      type="scale"
      values="1;0;"
      begin="star11.end"
      dur="1s"/>
  </g>
  <g id="s2" style="transform-origin: 105px 75.4px">
    <path class="cls-9" d="m107.99,75.16l-1.68-.97-.97-1.68c-.12-.2-.4-.2-.52,0l-.97,1.68-1.68.97c-.2.12-.2.4,0,.52l1.68.97.97,1.68c.12.2.4.2.52,0l.97-1.68,1.68-.97c.2-.12.2-.41,0-.52Z"/>
      <animateTransform
      id="star2"
      attributeName="transform"
      type="scale"
      values="0;1;"
      begin="0s;star222.end"
      dur="1s"/>
    <animateTransform
      id="star22"
      attributeName="transform"
      type="rotate"
      values="0,0,0;180,0,0"
      begin="star2.end"
      dur="0.5s"/>
    <animateTransform
      id="star222"
      attributeName="transform"
      type="scale"
      values="1;0;"
      begin="star22.end"
      dur="1s"/>
  </g>
  <g id="s3" style="transform-origin: 109.5px 27px">
    <path class="cls-9" d="m111.67,26.81l-1.46-.46-.57-1.58c-.09-.15-.31-.15-.4,0l-.57,1.58-1.46.46c-.15.09-.15.31,0,.4l1.46.46.57,2.5c.09.15.31.15.4,0l.57-2.5,1.46-.46c.15-.09.15-.31,0-.4Z"/>
    <animateTransform
      id="star3"
      attributeName="transform"
      type="scale"
      values="0;1;"
      begin="0s;star333.end"
      dur="1s"/>
    <animateTransform
      id="star33"
      attributeName="transform"
      type="rotate"
      values="0,0,0;180,0,0"
      begin="star3.end"
      dur="0.5s"/>
    <animateTransform
      id="star333"
      attributeName="transform"
      type="scale"
      values="1;0;"
      begin="star33.end"
      dur="1s"/>
  </g>
  <g id="s4"  style="transform-origin: 17.6px 88.5px">
    <path class="cls-9" d="m19.85,88.18l-1.46-.46-.57-1.58c-.09-.15-.31-.15-.4,0l-.57,1.58-1.46.46c-.15.09-.15.31,0,.4l1.46.46.57,2.5c.09.15.31.15.4,0l.57-2.5,1.46-.46c.15-.09.15-.31,0-.4Z"/>
      <animateTransform
      id="star4"
      attributeName="transform"
      type="scale"
      values="0;1;"
      begin="0s;star444.end"
      dur="1s"/>
    <animateTransform
      id="star44"
      attributeName="transform"
      type="rotate"
      values="0,0,0;180,0,0"
      begin="star4.end"
      dur="0.5s"/>
    <animateTransform
      id="star444"
      attributeName="transform"
      type="scale"
      values="1;0;"
      begin="star44.end"
      dur="1s"/>
  </g>
  <g id="s5" style="transform-origin: 45.4px 54.9px">
    <path class="cls-9" d="m47.5,54.57l-1.46-.46-.57-1.58c-.09-.15-.31-.15-.4,0l-.57,1.58-1.46.46c-.15.09-.15.31,0,.4l1.46.46.57,2.5c.09.15.31.15.4,0l.57-2.5,1.46-.46c.15-.09.15-.31,0-.4Z"/>
    <animateTransform
      id="star5"
      attributeName="transform"
      type="scale"
      values="0;1;"
      begin="0s;star555.end"
      dur="1s"/>
    <animateTransform
      id="star55"
      attributeName="transform"
      type="rotate"
      values="0,0,0;180,0,0"
      begin="star5.end"
      dur="0.5s"/>
    <animateTransform
      id="star555"
      attributeName="transform"
      type="scale"
      values="1;0;"
      begin="star55.end"
      dur="1s"/>
  </g>
</svg>