<?xml version="1.0" encoding="UTF-8"?>
<svg xmlns="http://www.w3.org/2000/svg" viewBox="0 0 200 200">
  <defs>
    <style>
      .cls-1 {
        font-family: FranklinGothic-Medium, 'Franklin Gothic Medium';
        font-size: 68.1px;
        font-weight: 500;
      }

      .cls-1, .cls-2 {
        fill: #3f3532;
      }

      .cls-3 {
        fill: #fff;
      }

      .cls-4 {
        fill: #ff9045;
      }

      .cls-5 {
        fill: #ffe7d7;
      }

      .cls-6 {
        fill: #e8c7b1;
      }

      .cls-7 {
        fill: #969696;
        opacity: .16;
      }

      .cls-8 {
        fill: #f76715;
      }

      .cls-9 {
        fill: #ffce80;
      }
    </style>
  </defs>
  <g id="shadow">
    <ellipse class="cls-7" cx="100" cy="170.98" rx="94.16" ry="29.02"/>
  </g>
  <g id="calendar">
    <path class="cls-8" d="m23.08,26.89h144.58c3.78,0,6.84,3.07,6.84,6.84v25.84H16.24v-25.84c0-3.78,3.07-6.84,6.84-6.84Z"/>
    <path class="cls-6" d="m161.99,168.83H28.75c-6.91,0-12.51-5.6-12.51-12.51V59.58h158.27v96.74c0,6.91-5.6,12.51-12.51,12.51Z"/>
    <path class="cls-4" d="m32.34,26.89h144.58c3.78,0,6.84,3.07,6.84,6.84v25.84H25.49v-25.84c0-3.78,3.07-6.84,6.84-6.84Z"/>
    <path class="cls-5" d="m171.25,168.83H38.01c-6.91,0-12.51-5.6-12.51-12.51V59.58h158.27v96.74c0,6.91-5.6,12.51-12.51,12.51Z"/>
    <path class="cls-3" d="m43.08,75.11h123.1v68.84c0,5.15-4.18,9.33-9.33,9.33H52.41c-5.15,0-9.33-4.18-9.33-9.33v-68.84h0Z"/>
    <circle class="cls-3" cx="59.98" cy="40.8" r="8.91"/>
    <circle class="cls-3" cx="148.8" cy="40.8" r="8.91"/>
    <path class="cls-8" d="m59.98,31.9c-.4,0-.79.04-1.18.09,4.36.58,7.73,4.3,7.73,8.82s-3.37,8.24-7.73,8.82c.39.05.78.09,1.18.09,4.92,0,8.91-3.99,8.91-8.91s-3.99-8.91-8.91-8.91Z"/>
    <path class="cls-8" d="m148.8,31.9c-.4,0-.79.04-1.18.09,4.36.58,7.73,4.3,7.73,8.82s-3.37,8.24-7.73,8.82c.39.05.78.09,1.18.09,4.92,0,8.91-3.99,8.91-8.91s-3.99-8.91-8.91-8.91Z"/>
    <rect class="cls-2" x="49.41" y="25.67" width="19.14" height="8.03" rx="4.01" ry="4.01" transform="translate(29.29 88.67) rotate(-90)"/>
    <rect class="cls-2" x="138.23" y="25.67" width="19.14" height="8.03" rx="4.01" ry="4.01" transform="translate(118.11 177.49) rotate(-90)"/>
  </g>
  <g id="number">
    <g><text class="cls-1" transform="translate(64.96 137.99)"><tspan x="0" y="0" id="dateNumber">30</tspan></text></g>
  </g>
  <g id="star4">
    <path class="cls-9" d="m194.95,94.79l-4.89-2.82-2.82-4.89c-.34-.58-1.18-.58-1.52,0l-2.82,4.89-4.89,2.82c-.58.34-.58,1.18,0,1.52l4.89,2.82,2.82,4.89c.34.58,1.18.58,1.52,0l2.82-4.89,4.89-2.82c.58-.34.58-1.18,0-1.52Z"/>
  </g>
  <g id="star3">
    <path class="cls-9" d="m179.94,13.6l-3.14-1.81-1.81-3.14c-.22-.38-.76-.38-.97,0l-1.81,3.14-3.14,1.81c-.38.22-.38.76,0,.97l3.14,1.81,1.81,3.14c.22.38.76.38.97,0l1.81-3.14,3.14-1.81c.37-.22.37-.76,0-.97Z"/>
  </g>
  <g id="star2">
    <path class="cls-9" d="m30.14,12l-4.63-1.45-1.81-4.99c-.28-.49-.98-.49-1.27,0l-1.81,4.99-4.63,1.45c-.49.28-.49.98,0,1.27l4.63,1.44,1.81,7.91c.28.49.98.49,1.27,0l1.81-7.91,4.63-1.44c.49-.28.49-.99,0-1.27Z"/>
  </g>
  <g id="star1">
    <path class="cls-9" d="m55.98,118.92l-3.21-1-1.26-3.47c-.19-.34-.68-.34-.88,0l-1.25,3.47-3.21,1c-.34.19-.34.68,0,.88l3.21,1,1.25,5.49c.19.34.68.34.88,0l1.26-5.49,3.21-1c.34-.2.34-.68,0-.88Z"/>
  </g>
</svg>