<?xml version="1.0" encoding="UTF-8"?>
<svg xmlns="http://www.w3.org/2000/svg" xmlns:xlink="http://www.w3.org/1999/xlink" viewBox="0 0 132 132">
  <defs>
    <style>
      .cls-1, .cls-2, .cls-3 {
        fill: #fff;
      }

      .cls-4 {
        fill: #6abf6a;
      }

      .cls-2 {
        stroke: #e8e3dd;
        stroke-miterlimit: 10;
        stroke-width: 2px;
      }

      .cls-5 {
        fill: #f9bb00;
      }

      .cls-6 {
        fill: #312b26;
      }

      .cls-7 {
        fill: #725033;
      }

      .cls-8 {
        fill: #ff8d32;
      }

      .cls-3 {
        opacity: .19;
      }

      .cls-9 {
        fill: #e74235;
      }

      .cls-10 {
        fill: #3e82f1;
      }

      .cls-11 {
        fill: #32a753;
      }

      .cls-12 {
        clip-path: url(#clippath);
      }

      .cls-13 {
        fill: none;
      }

      .cls-14 {
        fill: #ffce80;
      }

      .cls-15 {
        fill: #c7f9c7;
      }

      .cls-16 {
        fill: #fffcfa;
      }

      .cls-17 {
        fill: #ffdbc2;
      }
    </style>
    <clipPath id="clippath">
      <rect class="cls-13" x="24.85" y="64.96" width="82.29" height="47.74" rx="2.83" ry="2.83"/>
    </clipPath>
  </defs>
  <g id="bg">
    <rect class="cls-16" width="132" height="132" rx="20" ry="20"/>
  </g>
  <g id="_图层_3" data-name="图层 3">
    <rect class="cls-6" x="19.62" y="60.05" width="92.76" height="57.94" rx="4.31" ry="4.31"/>
    <rect class="cls-6" x="34.66" y="119.83" width="62.69" height="2.45" rx="1.22" ry="1.22"/>
    <rect class="cls-1" x="21.67" y="62.09" width="88.67" height="53.49" rx="3.14" ry="3.14"/>
    <rect class="cls-8" x="24.85" y="64.96" width="82.29" height="47.74" rx="2.83" ry="2.83"/>
    <g>
      <rect class="cls-16" x="94.03" y="69.37" width="8" height="1" rx=".5" ry=".5"/>
      <rect class="cls-16" x="94.03" y="71.36" width="8" height="1" rx=".5" ry=".5"/>
      <rect class="cls-16" x="94.03" y="73.35" width="8" height="1" rx=".5" ry=".5"/>
    </g>
    <g class="cls-12">
      <path class="cls-3" d="m32.35,57.35l20.76,67.8s15.8,2.65,16.02,1.99S34.44,56.88,34.44,56.88l-2.09.47Z"/>
      <path class="cls-3" d="m36.77,56.44c0,.48,36.28,66.45,36.28,66.45h6.78L37.84,55.92l-1.07.51Z"/>
    </g>
    <rect class="cls-1" x="47.4" y="93.09" width="38.11" height="4.27" rx="2.13" ry="2.13"/>
    <rect class="cls-1" x="47.4" y="100.14" width="38.11" height="4.27" rx="2.13" ry="2.13"/>
  </g>
  <g id="_头像" data-name="头像">
    <circle class="cls-1" cx="66" cy="80.14" r="10.45"/>
    <g>
      <circle class="cls-7" cx="66" cy="77.35" r="3"/>
      <path class="cls-7" d="m68.35,85.92c2.18,0,3.38-2.98,1.84-4.71-1.07-1.2-2.56-1.95-4.19-1.95s-3.12.74-4.19,1.95c-1.54,1.73-.34,4.71,1.84,4.71h4.7Z"/>
    </g>
  </g>
  <g id="_输入2" data-name="输入2">
    <rect class="cls-17" x="50.09" y="101.39" width="15.91" height="1.77" rx=".57" ry=".57"/>
  </g>
  <g id="_输入1" data-name="输入1">
    <rect class="cls-17" x="50.09" y="94.34" width="11.92" height="1.77" rx=".5" ry=".5"/>
  </g>
  <g id="google">
    <g>
      <circle class="cls-2" cx="38.38" cy="31.21" r="16.72"/>
      <g>
        <path class="cls-10" d="m38.57,29.57v3.48h4.84c-.21,1.12-.84,2.08-1.8,2.72v2.26h2.91c1.7-1.57,2.68-3.87,2.68-6.61,0-.64-.06-1.25-.16-1.84h-8.47Z"/>
        <path class="cls-11" d="m38.57,36.63c-2.34,0-4.33-1.58-5.04-3.71h-3.01v2.33c1.48,2.94,4.52,4.96,8.04,4.96,2.43,0,4.47-.81,5.96-2.18l-2.91-2.26c-.8.54-1.83.86-3.04.86Z"/>
        <path class="cls-5" d="m29.57,31.21c0,1.45.35,2.83.96,4.04l3.01-2.33c-.18-.54-.28-1.12-.28-1.71s.1-1.17.28-1.71v-2.34h-3.01c-.61,1.22-.96,2.59-.96,4.05Z"/>
        <path class="cls-9" d="m30.53,27.16l3.01,2.33c.71-2.13,2.69-3.71,5.04-3.71,1.32,0,2.51.45,3.44,1.35l2.58-2.58c-1.56-1.45-3.6-2.34-6.02-2.34-3.53,0-6.57,2.01-8.05,4.95Z"/>
      </g>
    </g>
    <animateTransform
      attributeName="transform"
      type="translate"
      values="0,0;0,6;0,0;"
      begin="0s"
      dur="1.5s"
      repeatCount="indefinite"/>
  </g>
  <g id="email">
    <g>
      <circle class="cls-2" cx="94.03" cy="35.87" r="16.72"/>
      <g>
        <path class="cls-4" d="m86.91,28.3h14.25c1.48,0,2.67,1.2,2.67,2.67h0v9.8c0,1.48-1.2,2.67-2.67,2.67h-14.25c-1.48,0-2.67-1.2-2.67-2.67h0v-9.8c0-1.48,1.2-2.67,2.67-2.67h0Z"/>
        <path class="cls-15" d="m101.6,29.85h-15.14c-.7,0-.93.94-.31,1.26l7.59,4c.2.1.43.1.62,0l7.55-4.01c.61-.33.38-1.26-.31-1.26h0Z"/>
      </g>
    </g>
            <animateTransform
      attributeName="transform"
      type="translate"
      values="0,0;0,-5;0,0;"
      begin="0s"
      dur="1.5s"
      repeatCount="indefinite"/>
  </g>
  <g id="s1" style="transform-origin: 112.2px 14.3px">
    <path class="cls-14" d="m115.23,13.97l-1.68-.97-.97-1.68c-.12-.2-.4-.2-.52,0l-.97,1.68-1.68.97c-.2.12-.2.4,0,.52l1.68.97.97,1.68c.12.2.4.2.52,0l.97-1.68,1.68-.97c.2-.12.2-.41,0-.52Z"/>
      <animateTransform
      id="star1"
      attributeName="transform"
      type="scale"
      values="0;1;"
      begin="0s;star111.end"
      dur="1s"/>
    <animateTransform
      id="star11"
      attributeName="transform"
      type="rotate"
      values="0,0,0;180,0,0"
      begin="star1.end"
      dur="0.5s"/>
    <animateTransform
      id="star111"
      attributeName="transform"
      type="scale"
      values="1;0;"
      begin="star11.end"
      dur="1s"/>
  </g>
  <g id="s2" style="transform-origin: 57.9px 45.8px">
    <path class="cls-14" d="m60.95,45.56l-1.68-.97-.97-1.68c-.12-.2-.4-.2-.52,0l-.97,1.68-1.68.97c-.2.12-.2.4,0,.52l1.68.97.97,1.68c.12.2.4.2.52,0l.97-1.68,1.68-.97c.2-.12.2-.41,0-.52Z"/>
    <animateTransform
      id="star2"
      attributeName="transform"
      type="scale"
      values="0;1;"
      begin="0s;star222.end"
      dur="1s"/>
    <animateTransform
      id="star22"
      attributeName="transform"
      type="rotate"
      values="0,0,0;180,0,0"
      begin="star2.end"
      dur="0.5s"/>
    <animateTransform
      id="star222"
      attributeName="transform"
      type="scale"
      values="1;0;"
      begin="star22.end"
      dur="1s"/>
  </g>
  <g id="s3" style="transform-origin: 119.4px 57.2px">
    <path class="cls-14" d="m121.62,56.96l-1.46-.46-.57-1.58c-.09-.15-.31-.15-.4,0l-.57,1.58-1.46.46c-.15.09-.15.31,0,.4l1.46.46.57,2.5c.09.15.31.15.4,0l.57-2.5,1.46-.46c.15-.09.15-.31,0-.4Z"/>
    <animateTransform
      id="star3"
      attributeName="transform"
      type="scale"
      values="0;1;"
      begin="0s;star333.end"
      dur="1s"/>
    <animateTransform
      id="star33"
      attributeName="transform"
      type="rotate"
      values="0,0,0;180,0,0"
      begin="star3.end"
      dur="0.5s"/>
    <animateTransform
      id="star333"
      attributeName="transform"
      type="scale"
      values="1;0;"
      begin="star33.end"
      dur="1s"/>
  </g>
  <g id="s4" style="transform-origin: 13px 32px">
    <path class="cls-14" d="m15.16,31.74l-1.46-.46-.57-1.58c-.09-.15-.31-.15-.4,0l-.57,1.58-1.46.46c-.15.09-.15.31,0,.4l1.46.46.57,2.5c.09.15.31.15.4,0l.57-2.5,1.46-.46c.15-.09.15-.31,0-.4Z"/>
    <animateTransform
      id="star3"
      attributeName="transform"
      type="scale"
      values="0;1;"
      begin="0s;star333.end"
      dur="1s"/>
    <animateTransform
      id="star33"
      attributeName="transform"
      type="rotate"
      values="0,0,0;180,0,0"
      begin="star3.end"
      dur="0.5s"/>
    <animateTransform
      id="star333"
      attributeName="transform"
      type="scale"
      values="1;0;"
      begin="star33.end"
      dur="1s"/>
  </g>
  <g id="s5" style="transform-origin: 13.6px 84px">
    <path class="cls-14" d="m16.54,83.86l-1.68-.97-.97-1.68c-.12-.2-.4-.2-.52,0l-.97,1.68-1.68.97c-.2.12-.2.4,0,.52l1.68.97.97,1.68c.12.2.4.2.52,0l.97-1.68,1.68-.97c.2-.12.2-.41,0-.52Z"/>
    <animateTransform
      id="star3"
      attributeName="transform"
      type="scale"
      values="0;1;"
      begin="0s;star333.end"
      dur="1s"/>
    <animateTransform
      id="star33"
      attributeName="transform"
      type="rotate"
      values="0,0,0;180,0,0"
      begin="star3.end"
      dur="0.5s"/>
    <animateTransform
      id="star333"
      attributeName="transform"
      type="scale"
      values="1;0;"
      begin="star33.end"
      dur="1s"/>
  </g>
</svg>