<?xml version="1.0" encoding="UTF-8"?>
<svg id="_图层_2" data-name="图层 2" xmlns="http://www.w3.org/2000/svg" xmlns:xlink="http://www.w3.org/1999/xlink" viewBox="0 0 1967.52 379.25">
  <defs>
    <style>
      .cls-1 {
        fill: #fff;
      }

      .cls-2 {
        fill: #f4a61c;
      }

      .cls-3 {
        fill: #d1871c;
      }

      .cls-4 {
        fill: #ffab9b;
      }

      .cls-5 {
        fill: #fffdf0;
      }

      .cls-6 {
        fill: #ff8d32;
      }

      .cls-7 {
        fill: #f6872f;
      }

      .cls-8 {
        clip-path: url(#clippath-1);
      }

      .cls-9 {
        fill: #ffbf89;
      }

      .cls-10 {
        clip-path: url(#clippath);
      }

      .cls-11 {
        fill: #fdc72f;
      }

      .cls-12 {
        fill: #fbe945;
      }

      .cls-13 {
        fill: #c35a00;
      }
    </style>
    <clipPath id="clippath">
      <path class="cls-6" d="m828.8,27.16s-11.89,24.72-7.63,34.18c4.06,9.02,13.62,13.28,13.95,17.48.02.2.26.3.41.16.7-.64,2.31-1.72,5.14-1.63,4,.13,9.89.98,15.32-1.46,5.43-2.44,11.46-11.2,19.13-26.88l2.28-4.98-46.56-21.34-2.04,4.47Z"/>
    </clipPath>
    <clipPath id="clippath-1">
      <path class="cls-6" d="m860.05,4.93s-26.06-5.5-34.26,12.4c-3.06,6.68,4.37,13.65,26.67,23.87,22.3,10.22,27.75,9.17,31.45,4.41,3.7-4.76,8.71-19.94-14.01-35.98,0,0,.37-1.47,1.54-2.36,1.17-.89,2.57-3.07.22-5.68-2.35-2.6-6.22-1.42-7.56-.56s-4.04,3.89-4.04,3.89Z"/>
    </clipPath>
  </defs>
  <g id="_图层_1-2" data-name="图层 1">
    <g>
      <path class="cls-6" d="m828.8,27.16s-11.89,24.72-7.63,34.18c4.06,9.02,13.63,13.28,13.95,17.48.02.2.26.3.41.16.7-.64,2.31-1.72,5.14-1.63,4,.13,9.89.98,15.32-1.46,5.43-2.44,11.46-11.2,19.13-26.88l2.28-4.98-46.56-21.34-2.04,4.47Z"/>
      <g>
        <path class="cls-6" d="m828.8,27.16s-11.89,24.72-7.63,34.18c4.06,9.02,13.62,13.28,13.95,17.48.02.2.26.3.41.16.7-.64,2.31-1.72,5.14-1.63,4,.13,9.89.98,15.32-1.46,5.43-2.44,11.46-11.2,19.13-26.88l2.28-4.98-46.56-21.34-2.04,4.47Z"/>
        <g class="cls-10">
          <path class="cls-6" d="m861.4,39.77s-11.82,25.05-16.89,28.72-8.04,7.2-23.13-3.55l11.23,16.95,24.12,1.19s17.56-29.13,17.68-29.28,3.92-8.55,3.92-8.55l-16.92-5.49Z"/>
        </g>
      </g>
      <path class="cls-6" d="m875.63,44.69l-1.72,3.75c-7.68,15.69-13.55,24.02-18.47,26.23-4.28,1.92-8.94,1.66-12.68,1.45-.73-.04-1.41-.08-2.06-.1-2.1-.07-3.65.44-4.72,1.02-.83-1.79-2.68-3.5-4.89-5.53-2.96-2.73-6.65-6.12-8.72-10.72-.87-1.92-1.03-4.81-.5-8.59.44-3.14,1.37-6.87,2.76-11.06,2.38-7.2,5.33-13.35,5.36-13.41h0s0-.02,0-.02l1.49-3.26,44.14,20.23m1.54-.76l-46.12-21.14c-.12-.06-.27,0-.32.12l-1.94,4.25s-11.89,24.72-7.63,34.18c4.06,9.02,13.63,13.28,13.95,17.48,0,.1.07.17.14.2.08.04.19.03.27-.04.7-.64,2.31-1.72,5.14-1.63,4,.13,9.89.98,15.32-1.46,5.43-2.44,11.46-11.2,19.13-26.88l2.18-4.76c.06-.12,0-.27-.12-.32h0Z"/>
      <path class="cls-6" d="m860.05,4.93s-26.06-5.5-34.26,12.4c-3.06,6.68,4.37,13.65,26.67,23.87,22.3,10.22,27.75,9.17,31.45,4.41,3.7-4.76,8.71-19.94-14.01-35.98,0,0,.37-1.47,1.54-2.36,1.17-.89,2.57-3.07.22-5.68-2.35-2.6-6.22-1.42-7.56-.56s-4.04,3.89-4.04,3.89Z"/>
      <g>
        <path class="cls-6" d="m860.05,4.93s-26.06-5.5-34.26,12.4c-3.06,6.68,4.37,13.65,26.67,23.87,22.3,10.22,27.75,9.17,31.45,4.41,3.7-4.76,8.71-19.94-14.01-35.98,0,0,.37-1.47,1.54-2.36,1.17-.89,2.57-3.07.22-5.68-2.35-2.6-6.22-1.42-7.56-.56s-4.04,3.89-4.04,3.89Z"/>
        <g class="cls-8">
          <path class="cls-6" d="m858.23,4.31s19.64,17.74,13.86,30.76c-5.57,12.86-20.24,5.84-20.24,5.84l27.21,13.45,11.56-15.41-2.03-20.41L872.32-.33l-9.11-2.98-4.98,7.62Z"/>
        </g>
      </g>
      <path class="cls-6" d="m869.58,1.68c.41.19.78.46,1.09.81.68.75.99,1.46.92,2.12-.06.69-.54,1.28-.96,1.6-1.5,1.14-1.97,2.9-2.02,3.1l-.22.88.74.53c5.29,3.74,9.4,7.68,12.2,11.72,2.32,3.35,3.75,6.77,4.26,10.17.38,2.57.23,5.09-.45,7.48-.69,2.44-1.73,4-2.28,4.72-.91,1.17-1.78,1.89-2.83,2.36-1.24.55-2.8.73-4.76.55-4.64-.42-11.72-2.87-22.27-7.71-11.04-5.06-18.4-9.32-22.51-13.04-1.93-1.74-3.18-3.41-3.72-4.95-.49-1.39-.42-2.74.22-4.12,1.75-3.81,4.51-6.79,8.22-8.86,3.02-1.69,6.67-2.79,10.86-3.27,7.25-.84,13.63.47,13.7.48l.75.16.51-.58c1-1.12,2.91-3.1,3.77-3.66.75-.49,3-1.28,4.76-.48m.55-1.21c-2.25-1.03-4.96-.13-6.04.57-1.34.86-4.04,3.89-4.04,3.89,0,0-26.06-5.5-34.26,12.4-3.06,6.68,4.37,13.65,26.67,23.87,22.3,10.22,27.75,9.17,31.45,4.41,3.7-4.76,8.71-19.94-14.01-35.98,0,0,.37-1.47,1.54-2.36,1.17-.89,2.57-3.07.22-5.68-.46-.51-.98-.87-1.52-1.12h0Z"/>
      <path class="cls-6" d="m843.92,9.33l-1.61.74c-.46.21-.7.74-.54,1.22.17.55.4,1.26.59,1.87.21.66.95.98,1.57.68l1.7-.82c.47-.23.72-.76.58-1.27-.11-.43-.48-1.23-.8-1.87-.27-.56-.94-.8-1.51-.54Z"/>
      <path class="cls-6" d="m835.43,13.28c-1.1.74-3.27,2.18-4.56,3.03-.62.41-.88,1.18-.63,1.88l2.23,6.34c.14.41.63.58,1,.35,1.14-.71,3.39-2.14,4.77-3.03.69-.44.97-1.31.67-2.08-.69-1.75-1.9-4.79-2.47-6.2-.16-.4-.65-.55-1.01-.31Z"/>
      <path class="cls-6" d="m847.88,15.03c-1.47.76-3.94,2.07-5.29,2.79-.55.29-.81.93-.62,1.53l2.06,6.41c.24.73,1.06,1.1,1.76.78l6.32-2.89c.66-.3.94-1.09.62-1.74l-3.1-6.3c-.32-.65-1.1-.91-1.74-.57Z"/>
      <path class="cls-6" d="m838.83,26.12l-1.97,1.55c-.39.31-.46.86-.17,1.26l.95,1.28c.27.36.76.48,1.16.27l1.9-1.01c.44-.23.61-.76.4-1.21l-.88-1.82c-.25-.52-.93-.68-1.39-.32Z"/>
      <path class="cls-6" d="m853.44,27.47c-1.23.71-3.49,2.02-4.53,2.62-.32.19-.47.56-.36.92l1.64,5.48c.14.47.67.7,1.11.49,1.23-.6,3.51-1.76,4.65-2.35.4-.2.59-.67.46-1.1-.43-1.35-1.34-4.19-1.83-5.63-.16-.48-.72-.68-1.15-.44Z"/>
      <path class="cls-6" d="m859.63,21.46l-2.16,1.23c-.49.28-.69.89-.46,1.41l1.17,2.64c.27.61,1.02.84,1.59.49l2.04-1.26c.46-.28.65-.86.45-1.36l-1.05-2.61c-.25-.62-.99-.88-1.58-.55Z"/>
      <path class="cls-6" d="m855.66,12.08l-1.95,1.16c-.63.38-.88,1.17-.58,1.85l1.35,3.01c.35.79,1.3,1.1,2.05.67l1.83-1.05c.63-.36.9-1.13.63-1.8l-1.23-3.13c-.33-.84-1.33-1.18-2.1-.72Z"/>
      <path class="cls-6" d="m865.81,17.78l-1.4,1.1c-.53.42-.64,1.18-.24,1.73l1,1.4c.44.62,1.32.71,1.88.19l1.29-1.19c.46-.42.54-1.12.19-1.64l-.89-1.31c-.41-.61-1.25-.74-1.83-.28Z"/>
      <path class="cls-6" d="m865.93,27.64l-4.14,2.7c-.31.2-.43.6-.29.94l1.96,4.62c.17.41.66.59,1.06.38,1.03-.53,2.93-1.55,4.02-2.14.48-.26.69-.83.48-1.34-.51-1.27-1.45-3.59-1.97-4.82-.19-.44-.72-.61-1.13-.34Z"/>
      <path class="cls-6" d="m877.91,25.57l-1.9,1.31c-.44.31-.6.89-.36,1.37l1.21,2.46c.28.57.99.78,1.53.46l2.15-1.28c.51-.31.68-.97.38-1.48l-1.45-2.49c-.32-.55-1.03-.7-1.55-.35Z"/>
      <path class="cls-6" d="m873.78,17.71l-.78.77c-.27.27-.31.7-.09,1.01l1.05,1.5c.26.36.76.44,1.12.17l1.18-.89c.38-.29.42-.86.07-1.19l-1.45-1.37c-.31-.29-.79-.29-1.09,0Z"/>
      <path class="cls-6" d="m878.14,35.14c-.95.56-2.22,1.33-3.14,1.88-.66.39-.9,1.22-.57,1.91l1.44,2.96c.38.77,1.33,1.06,2.07.63.87-.51,2.01-1.19,2.92-1.74.9-.54,1.21-1.71.7-2.63-.45-.8-.98-1.75-1.4-2.48-.41-.71-1.32-.95-2.03-.53Z"/>
      <path class="cls-6" d="m854.25,44.16s-.95,3.07-2.7,6.89-3.98,6.37-3.98,6.37c0,0,3.63-2.81,5.07-5.94,1.44-3.14,1.61-7.31,1.61-7.31Z"/>
      <path class="cls-6" d="m860.33,54.95s-1.7,5.29-4.02,8.77c-2.32,3.48-5.51,6.01-5.51,6.01,0,0,5.21-2.3,7.74-6.22s1.8-8.56,1.8-8.56Z"/>
      <path class="cls-6" d="m835.03,39.35c1.11.51,1.4,1.22-.38,5.07-1.78,3.84-1.81,5.88-2.06,6.83s-1.05,2.3-2.39.54c-1.05-1.39.29-4.86,1.1-7.75.36-1.29,2.1-5.44,3.73-4.69Z"/>
      <path class="cls-6" d="m827.42,48.18c-.4,1.37-1.22,4.39-.14,4.92,1.08.53.56-1.5,1.31-4.04.56-1.89,1.69-4.16.72-4.46-.73-.23-1.49,2.18-1.89,3.58Z"/>
      <path class="cls-6" d="m870.84,41.38l-1.26.92c-.44.32-.54.93-.22,1.37l.59.83c.33.46.97.56,1.41.21l1.23-.95c.42-.32.51-.92.21-1.35l-.56-.8c-.32-.46-.95-.57-1.4-.24Z"/>
      <path class="cls-6" d="m869.24,2.72c-.05-.48-.46-.74-.91-.75-1.46,0-3.05.49-4.01,1.65-.68.83.59,1.9,1.27,1.07.69-.84,1.86-1.07,2.9-1.07.45,0,.79-.5.75-.91Z"/>
    </g>
    <path class="cls-6" d="m477.34,262.15c5.66,0,11.14-.98,16.44-2.96,5.29-1.97,10.1-4.62,14.41-7.94,4.31-3.32,8.06-7.2,11.27-11.64l50.24,20.32c-5.91,11.08-13.48,20.81-22.72,29.18-9.23,8.38-19.89,14.9-31.95,19.58-12.07,4.68-24.63,7.02-37.68,7.02-28.81,0-53.44-10.22-73.88-30.66-20.44-20.44-30.66-45.07-30.66-73.88s10.22-53.44,30.66-73.88c20.44-20.44,45.07-30.66,73.88-30.66,14.04,0,27.39,2.71,40.08,8.13,12.68,5.42,23.76,12.81,33.25,22.16,9.48,9.36,16.93,20.2,22.35,32.51l-1.25-.06c-18.44-.83-36.28,6.65-48.62,20.37h0c-4.19-8.87-10.41-15.94-18.66-21.24-8.25-5.29-17.3-7.94-27.15-7.94-14.04,0-26.04,4.93-36.02,14.78-9.97,9.85-14.96,21.79-14.96,35.83,0,9.36,2.27,17.92,6.83,25.67,4.55,7.76,10.71,13.92,18.47,18.47,7.76,4.56,16.31,6.83,25.67,6.83Z"/>
    <path class="cls-6" d="m619.19,137.29c20.44-20.44,45.07-30.66,73.88-30.66s53.44,10.22,73.88,30.66c20.44,20.44,30.66,45.07,30.66,73.88s-10.22,53.44-30.66,73.88c-20.44,20.44-45.07,30.66-73.88,30.66-18.97,0-36.45-4.68-52.46-14.04-16.01-9.36-28.69-22.04-38.05-38.05-9.36-16.01-14.04-33.49-14.04-52.46,0-28.81,10.22-53.44,30.66-73.88Zm37.86,109.9c9.97,9.97,21.98,14.96,36.02,14.96s25.98-4.99,35.83-14.96c9.85-9.97,14.78-21.98,14.78-36.02s-4.93-25.98-14.78-35.83c-9.85-9.85-21.8-14.78-35.83-14.78s-26.04,4.93-36.02,14.78c-9.97,9.85-14.96,21.79-14.96,35.83s4.99,26.04,14.96,36.02Z"/>
    <path class="cls-6" d="m875.2,306.84h-53.93V106.62h0c17.09,7.99,36.84,7.99,53.93,0h0s0,200.22,0,200.22Z"/>
    <path class="cls-6" d="m1009.66,106.99c16.25,0,30.23,2.65,41.93,7.94,11.69,5.3,20.81,12.87,27.34,22.72,6.52,9.85,11.27,20.81,14.22,32.88,2.95,12.07,4.43,25.62,4.43,40.63v95.68h-53.56v-95.68c0-14.04-3.88-25.98-11.64-35.83-7.76-9.85-17.06-14.78-27.89-14.78s-19.71,4.68-27.34,14.04c-7.64,9.36-11.7,20.81-12.19,34.36h-.37v97.89h-53.56V106.62h0c16.76,6.22,35.16,6.41,52.04.53l1.53-.53v14.04c13.79-9.11,28.81-13.67,45.07-13.67Z"/>
    <path d="m1230.19,106.62c28.81,0,53.38,10.22,73.7,30.66,20.32,20.44,30.48,45.07,30.48,73.88s-10.16,53.44-30.48,73.88c-20.32,20.44-44.88,30.66-73.7,30.66-13.06,0-25.62-2.34-37.68-7.02h0c8.75-17.56,9.71-37.99,2.65-56.3l-2.65-6.87c10.1,11.08,22.66,16.62,37.68,16.62,9.11,0,17.55-2.27,25.3-6.83,7.76-4.55,13.91-10.71,18.47-18.47,4.55-7.76,6.83-16.31,6.83-25.67,0-14.04-4.93-25.98-14.78-35.83-9.85-9.85-21.8-14.78-35.83-14.78-11.33,0-21.43,3.27-30.29,9.79-8.87,6.53-14.9,14.96-18.1,25.3-1.73,4.93-2.59,10.1-2.59,15.52v167.71h-53.56v-169.93c.24-4.43.61-8.87,1.11-13.3,3.69-25.36,15.33-46.55,34.91-63.54,19.58-16.99,42.42-25.49,68.53-25.49Z"/>
    <path d="m1560.07,195.65c.74,4.43,1.11,8.87,1.11,13.3v97.89h-53.56v-95.68c0-5.41-.74-10.59-2.22-15.52-3.45-10.34-9.61-18.78-18.47-25.3-8.87-6.52-18.84-9.79-29.92-9.79-14.04,0-26.04,4.93-36.02,14.78-9.97,9.85-14.96,21.79-14.96,35.83,0,9.36,2.27,17.92,6.83,25.67,4.55,7.76,10.71,13.92,18.47,18.47,7.76,4.56,16.31,6.83,25.67,6.83,15.02,0,27.46-5.54,37.31-16.62l-2.9,9.84c-5.17,17.58-4.15,36.4,2.9,53.32h0c-12.07,4.68-24.51,7.02-37.31,7.02-28.81,0-53.44-10.22-73.88-30.66-20.44-20.44-30.66-45.07-30.66-73.88s10.22-53.44,30.66-73.88c20.44-20.44,45.07-30.66,73.88-30.66,26.1,0,48.88,8.5,68.34,25.49,19.45,16.99,31.03,38.18,34.72,63.54Z"/>
    <path d="m1707.09,106.62h0c18.47,5.75,38.23,5.84,56.75.27l.88-.27-108.61,272.62-57.63-.37,35.83-89.77-72.77-182.49.48.15c17.31,5.3,35.81,5.25,53.09-.15h0s45.81,115.25,45.81,115.25l46.18-115.25Z"/>
    <path d="m1913.96,106.62h.02c17.28,6.39,36.27,6.39,53.54,0h0s0,200.22,0,200.22h-53.56v-9.24c-13.55,9.11-28.57,13.67-45.07,13.67s-29.92-2.65-41.74-7.94c-11.82-5.29-21-12.87-27.52-22.72-6.53-9.85-11.27-20.81-14.22-32.88-2.95-12.06-4.43-25.61-4.43-40.63v-100.48h0c17.19,6.71,36.27,6.73,53.47.04l.1-.04v100.11c0,14.04,3.88,26.04,11.64,36.02,7.76,9.97,17.18,14.96,28.26,14.96,6.89,0,13.3-2.15,19.21-6.47,5.91-4.31,10.65-10.22,14.22-17.73,3.57-7.51,5.48-15.57,5.73-24.2h.37v-102.7Z"/>
    <g>
      <path class="cls-7" d="m32.49,197.24s5.55-51.48,38.72-82.26,61.18-32.24,61.18-32.24l4.49-3.96,8.41-13.48,1.58,1.05,1.24,10.45s4.36-8.07,3.57-10.45c0,0,13,16.52,15.75,17.32,0,0,32.35-.79,61.55,35.94s37.39,71.27,37.39,71.27l-11.76,10.89-109.32,13.77-108.04-9.96-4.76-8.33Z"/>
      <path class="cls-13" d="m24.47,206.71c-1.24,1.08-2.46,2.16-3.67,3.27.04-.37.07-.73.11-1.09,1.28-.83,2.49-1.57,3.56-2.18Z"/>
      <path class="cls-13" d="m20.91,208.89c-4.12,2.7-9.05,6.48-13.09,10.68-3.54-2.28-5.69-5.73-2.99-9.83,2.41-3.8,6.28-6.43,10.14-8.72.5-.29,1.01-.57,1.53-.84.64-.34,1.29-.66,1.96-.98.46-.22.92-.42,1.38-.63.61-.27,1.23-.53,1.85-.76.19,0-.14,4.3-.77,11.08Z"/>
      <path d="m45.78,151.07c-.6.28-1.05.42-1.59.34-.16-.03-.32-.09-.32-.17.01-.08.12-.18.55-.23,0-.74.6-1.35,1.35-1.35s1.35.6,1.35,1.35c.63-.06.74-.27.25-.34-.54-.05-.98.11-1.57.41h0Z"/>
      <g>
        <path class="cls-9" d="m297.29,209.06c-.21-17.25-19.68-19.56-60.63-19.56s-15.55,17.74-44.72,17.74-24.45-18.85-48.24-17.74c-20.9.97-15.43,16.89-39.61,18.1-15.08.76-19.79-11.2-25.03-15.8-4.12-3.62-37.67-.85-51.76,2.79-14.1,3.65-23.09,12.27-25.4,16.53-2.31,4.25,5.95,8.63,5.95,8.63l-.97.85-5.35,11.42c-3.74,14.21,10.44,6.03,14.57,3.4,0,0,0,0,0,0,.56-3.04,1.62-6.05,3.09-8.9,1.23-2.41,2.75-4.71,4.5-6.82-5.67,10.13-8.88,24.42.19,33.49l.87.9.95.83c6.08,4.89,13.25,8.34,20.52,11.45,14.69,6.08,30.24,10.32,45.8,13.56,46.91,9.85,96.18,7.08,141.84-7.41,15.9-5.38,34.15-12.25,45.36-25.17,7.9-9.19,3.13-19.73-7.08-24.57,5.18,1.34,9.55,4.61,11.86,8.92h0c2.9-.71,6.95-4.67,6-8.17-1.09-4.01-9.6-7.17-9.6-7.17,7.66,1.34,16.94-3.52,16.89-7.29Z"/>
        <path class="cls-9" d="m272.13,222.77c10.21,4.84,14.98,15.38,7.08,24.57-11.22,12.92-29.46,19.8-45.36,25.17-45.66,14.49-94.93,17.27-141.84,7.41-15.55-3.24-31.1-7.48-45.8-13.56-7.28-3.11-14.45-6.56-20.52-11.45l-.95-.83-.87-.9c-9.06-9.07-5.86-23.36-.19-33.49-1.75,2.11-3.27,4.41-4.5,6.82-1.47,2.85-2.53,5.86-3.09,8.9,0,0,0,0,0,0,.69-.44,1.11-.73,1.11-.73-11.18,29.65,72.93,50.84,122.12,52.61,87.85,3.16,136.7-33.29,142.29-41.19s1.22-14.34,1.22-14.34c.35.05.75.01,1.17-.09h0c-2.32-4.31-6.69-7.58-11.86-8.92Z"/>
      </g>
      <path d="m109.78,135.31c-.33-2.3-2.73-3.86-5.19-4.22-2.27-.42-4.64-.15-6.9.26,0,0-2.35.54-2.35.54,2.48-1.39,5.21-2.74,8.04-3.23,4.27-1.01,9.59.8,11.41,5.16.89,3.33-3.95,4.76-5.01,1.48h0Z"/>
      <path d="m178.25,135.72c.93-1.86,2.47-3.37,4.27-4.38,4.13-2.34,8.93-1.19,12.78.89,0,0,2.11,1.25,2.11,1.25-4.03-1.31-9.45-2.33-12.77.87-.83.8-1.56,1.94-1.77,3.04-1.18,3.02-5.65,1.41-4.63-1.67h0Z"/>
      <path d="m116.97,158.78c-.06-.18-.14-.35-.22-.52-.03-.05-.04-.11-.07-.15-2.4-5.45-6.82-9-12.52-10.02-6.2-1.12-13.36.99-17.21,5.01-3.02,1.22-7.3,1.18-10.64,1.43,2.42,1.08,5.18,1.91,7.89,1.85,0,0,0,0,0,0-3.32,1.97-6.85,3.49-10.57,4.65,2.35.55,5.12.76,7.6.19-2.64,5.4-4.07,12.67-2.71,23.7.27,2.2.67,4.16,1.18,5.91-.37-.1-.74-.2-1.1-.27-3.64-.7-7.43-.65-11.04-.06,4.59.36,9.24,1.37,13.28,3.58,2.32,5.47,5.74,8.3,8.63,9.75,2.33,1.18,4.97,1.75,7.69,1.75,3.48,0,7.1-.94,10.37-2.81,10.34-5.89,13.8-33.04,9.44-43.98Zm-10.77,41.64c-5.06,2.88-11.01,3.27-15.53,1-5.17-2.59-8.44-8.42-9.49-16.84-2.02-16.34,2.42-23.81,7.52-29.44,2.3-2.53,6.87-4.68,11.91-4.68,1.01,0,2.04.08,3.07.27,1.89.34,4.12,1.1,6.17,2.69-3.36-1.01-7.83-.83-13.16,3.01-10.92,7.86-9.47,28.14-5.65,36.35,1.85,3.99,4.87,6.63,8.51,7.42.7.15,1.5.26,2.4.26,1.71,0,3.75-.38,6.08-1.45-.58.57-1.19,1.05-1.83,1.41Zm5.58-7.06c-4.17,3.52-8.2,4.98-11.66,4.22-2.79-.61-5.15-2.72-6.64-5.93-3.63-7.82-4.56-26.29,4.78-33.02,9.27-6.69,15.15-.31,16.04.78.05.13.12.24.17.38,2.9,7.28,1.83,23.71-2.69,33.58Z"/>
      <path class="cls-1" d="m101.95,200.47c1.71,0,3.75-.38,6.08-1.45-.58.57-1.19,1.05-1.83,1.41-5.06,2.88-11.01,3.27-15.53,1-5.17-2.59-8.44-8.42-9.49-16.84-2.02-16.34,2.42-23.81,7.52-29.44,2.3-2.53,6.87-4.68,11.91-4.68,1.01,0,2.04.08,3.07.27,1.89.34,4.12,1.1,6.17,2.69-3.36-1.01-7.83-.83-13.16,3.01-10.92,7.86-9.47,28.14-5.65,36.35,1.85,3.99,4.87,6.63,8.51,7.42.7.15,1.5.26,2.4.26Z"/>
      <g>
        <path d="m144.92,190.87c-10.12,0-16.4,3.54-16.4,9.27,0,6.51,14.32,11.78,15.96,12.37l.41.14.41-.13c2.8-.82,16.76-5.22,16.76-11.46s-6.25-10.19-17.14-10.19Zm.04,18.95c-5.85-2.15-13.76-6.46-13.76-9.68,0-4.86,7.08-6.58,13.71-6.58,5.39,0,14.45.97,14.45,7.5,0,3.06-8.28,6.9-14.4,8.76Z"/>
        <path d="m159.36,201.07c0,3.06-8.28,6.9-14.4,8.76-5.85-2.15-13.76-6.46-13.76-9.68,0-4.86,7.08-6.58,13.71-6.58,5.39,0,14.45.97,14.45,7.5Z"/>
      </g>
      <g>
        <path d="m114.48,159.78c-.05-.13-.12-.25-.17-.38-.89-1.09-6.77-7.47-16.04-.78-9.34,6.73-8.41,25.21-4.78,33.02,1.49,3.21,3.85,5.32,6.64,5.93,3.46.76,7.48-.7,11.66-4.22,4.52-9.87,5.59-26.3,2.69-33.58Zm-18.91,6.17c.71-1.55,1.62-2.91,2.58-3.84,1.7-1.65,3.01-1.42,3.63-1.13s1.66,1.12,1.53,3.49c-.07,1.33-.5,2.91-1.2,4.46-1.22,2.67-3.28,5.17-5.26,5.17-.32,0-.64-.06-.95-.21-2.25-1.02-1.75-4.84-.33-7.94Zm9.15,12.08c-.39.95-.98,1.78-1.68,2.32-.6.47-1.26.71-1.89.71-.31,0-.61-.05-.9-.17-.42-.17-.78-.46-1.06-.83.1.66.03,1.36-.22,2.03-.31.85-.86,1.57-1.55,2.03-.52.35-1.09.53-1.67.53-.31,0-.6-.05-.9-.16-1.61-.58-2.32-2.55-1.61-4.48.31-.85.85-1.57,1.54-2.03.81-.53,1.74-.67,2.57-.37.51.19.92.53,1.25.97-.13-.87,0-1.88.39-2.84.92-2.29,2.84-3.52,4.47-2.87.88.36,1.48,1.2,1.64,2.32.13.88,0,1.88-.39,2.84Z"/>
        <path class="cls-1" d="m104.72,178.03c-.39.95-.98,1.78-1.68,2.32-.6.47-1.26.71-1.89.71-.31,0-.61-.05-.9-.17-.42-.17-.78-.46-1.06-.83.1.66.03,1.36-.22,2.03-.31.85-.86,1.57-1.55,2.03-.52.35-1.09.53-1.67.53-.31,0-.6-.05-.9-.16-1.61-.58-2.32-2.55-1.61-4.48.31-.85.85-1.57,1.54-2.03.81-.53,1.74-.67,2.57-.37.51.19.92.53,1.25.97-.13-.87,0-1.88.39-2.84.92-2.29,2.84-3.52,4.47-2.87.88.36,1.48,1.2,1.64,2.32.13.88,0,1.88-.39,2.84Z"/>
        <path class="cls-1" d="m103.31,164.47c-.07,1.33-.5,2.91-1.2,4.46-1.22,2.67-3.28,5.17-5.26,5.17-.32,0-.64-.06-.95-.21-2.25-1.02-1.75-4.84-.33-7.94.71-1.55,1.62-2.91,2.58-3.84,1.7-1.65,3.01-1.42,3.63-1.13s1.66,1.12,1.53,3.49Z"/>
      </g>
      <path d="m226.1,190.45c-3.98-.31-8.05-.24-11.92.91.41-1.55.75-3.26.99-5.15,1.46-11.83-.3-19.34-3.31-24.85,3.05.74,6.61,1.03,7.57,1-3.29-1-7.22-2.28-9.89-4.61-.11-.14-.22-.29-.32-.42,2.32-.03,4.57-.66,6.79-1.4-3.03.24-6.56.09-9.16-1.41-3.82-4.1-11.07-6.26-17.34-5.13-5.71,1.03-10.12,4.59-12.52,10.03-.03.04-.04.09-.06.14-.08.17-.16.34-.23.52-4.35,10.94-.89,38.1,9.45,43.99,3.28,1.86,6.89,2.81,10.37,2.81,2.72,0,5.36-.58,7.69-1.75,3.05-1.53,6.68-4.6,8.99-10.7,3.73-2.38,8.45-3.41,12.89-3.81.11,0,.11-.16,0-.17Zm-44.22,4.16c-4.51-9.88-5.57-26.28-2.67-33.55.05-.13.11-.24.16-.37.54-.64,3.11-3.48,6.95-3.97,2.92-.37,5.96.69,9.04,3.14,7.65,6.09,9.56,20.83,4.08,31.54-1.42,2.76-4.02,4.77-7.14,5.52-3.45.83-7.14,0-10.42-2.32Zm30.62-8.73c-.31,2.52-.83,4.81-1.53,6.85-.21.25-.3.53-.3.8-1.66,4.34-4.24,7.48-7.66,9.19-4.51,2.27-10.46,1.88-15.53-1-1.09-.62-2.09-1.55-3.01-2.72,1.7.62,3.43.94,5.15.94,1.11,0,2.22-.13,3.3-.39,3.89-.92,7.13-3.45,8.91-6.92,6.01-11.75,3.77-28.04-4.8-34.86-3.68-2.93-7.41-4.17-11.08-3.7-.61.07-1.19.21-1.74.36,1.94-1.4,4.01-2.08,5.79-2.4,1.03-.19,2.06-.28,3.07-.28,4.76,0,9.08,1.91,11.49,4.25.13.27.33.48.6.63,5.03,5.61,9.34,13.09,7.34,29.25Z"/>
      <path class="cls-1" d="m212.49,185.88c-.31,2.52-.83,4.81-1.53,6.85-.21.25-.3.53-.3.8-1.66,4.34-4.24,7.48-7.66,9.19-4.51,2.27-10.46,1.88-15.53-1-1.09-.62-2.09-1.55-3.01-2.72,1.7.62,3.43.94,5.15.94,1.11,0,2.22-.13,3.3-.39,3.89-.92,7.13-3.45,8.91-6.92,6.01-11.75,3.77-28.04-4.8-34.86-3.68-2.93-7.41-4.17-11.08-3.7-.61.07-1.19.21-1.74.36,1.94-1.4,4.01-2.08,5.79-2.4,1.03-.19,2.06-.28,3.07-.28,4.76,0,9.08,1.91,11.49,4.25.13.27.33.48.6.63,5.03,5.61,9.34,13.09,7.34,29.25Z"/>
      <path d="m195.35,159.88c-3.08-2.45-6.12-3.51-9.04-3.14-3.85.48-6.42,3.33-6.95,3.97-.05.13-.11.24-.16.37-2.9,7.27-1.84,23.66,2.67,33.55,3.28,2.32,6.97,3.14,10.42,2.32,3.12-.74,5.73-2.76,7.14-5.52,5.47-10.71,3.57-25.44-4.08-31.54Zm-11.55,8.92c.71-1.54,1.62-2.91,2.58-3.83,1.7-1.65,3.01-1.42,3.63-1.13,2.24,1.02,1.75,4.84.33,7.94-1.22,2.67-3.28,5.18-5.26,5.18-.31,0-.64-.06-.95-.21-2.25-1.02-1.75-4.84-.33-7.95Zm9.24,11.88c-.38.93-.92,1.7-1.54,2.23-.62.52-1.32.82-2.02.82-.31,0-.61-.05-.9-.17-.43-.17-.79-.45-1.05-.82.09.63.02,1.32-.23,2.01-.31.84-.86,1.57-1.55,2.03-.52.34-1.09.52-1.67.52-.31,0-.6-.04-.9-.15-.83-.31-1.45-1.01-1.72-1.94-.23-.79-.2-1.7.12-2.54.7-1.93,2.5-2.99,4.11-2.4.51.19.94.52,1.25.94-.13-.84,0-1.82.39-2.81.39-.96.98-1.79,1.68-2.33.9-.69,1.91-.89,2.79-.54s1.48,1.19,1.64,2.32c.13.88,0,1.88-.39,2.84Z"/>
      <path class="cls-1" d="m193.05,180.68c-.38.93-.92,1.7-1.54,2.23-.62.52-1.32.82-2.02.82-.31,0-.61-.05-.9-.17-.43-.17-.79-.45-1.05-.82.09.63.02,1.32-.23,2.01-.31.84-.86,1.57-1.55,2.03-.52.34-1.09.52-1.67.52-.31,0-.6-.04-.9-.15-.83-.31-1.45-1.01-1.72-1.94-.23-.79-.2-1.7.12-2.54.7-1.93,2.5-2.99,4.11-2.4.51.19.94.52,1.25.94-.13-.84,0-1.82.39-2.81.39-.96.98-1.79,1.68-2.33.9-.69,1.91-.89,2.79-.54s1.48,1.19,1.64,2.32c.13.88,0,1.88-.39,2.84Z"/>
      <path class="cls-1" d="m190.34,171.78c-1.22,2.67-3.28,5.18-5.26,5.18-.31,0-.64-.06-.95-.21-2.25-1.02-1.75-4.84-.33-7.95.71-1.54,1.62-2.91,2.58-3.83,1.7-1.65,3.01-1.42,3.63-1.13,2.24,1.02,1.75,4.84.33,7.94Z"/>
      <g>
        <path d="m61.94,194.97c-9.35,0-16.67,3.87-16.67,8.81s7.32,8.81,16.67,8.81,16.67-3.88,16.67-8.81-7.32-8.81-16.67-8.81Zm0,14.93c-8.24,0-13.98-3.23-13.98-6.12s5.74-6.12,13.98-6.12,13.98,3.22,13.98,6.12-5.74,6.12-13.98,6.12Z"/>
        <ellipse class="cls-4" cx="61.94" cy="203.78" rx="13.98" ry="6.12"/>
      </g>
      <g>
        <path d="m233.05,194.97c-9.35,0-16.67,3.87-16.67,8.81s7.32,8.81,16.67,8.81,16.67-3.88,16.67-8.81-7.32-8.81-16.67-8.81Zm0,14.93c-8.24,0-13.98-3.23-13.98-6.12s5.74-6.12,13.98-6.12,13.98,3.22,13.98,6.12-5.74,6.12-13.98,6.12Z"/>
        <ellipse class="cls-4" cx="233.05" cy="203.78" rx="13.98" ry="6.12"/>
      </g>
      <path class="cls-7" d="m228.17,66.82c-4.08,6.68-9.94,19.61-10.36,39.15-2.96-2.76-5.91-5.26-8.83-7.48,2.69-10.87,7-22.17,16.01-29.28,1.04-.83,2.1-1.62,3.18-2.39Z"/>
      <path class="cls-7" d="m84.51,101.51c-3.17,2.29-6.17,4.71-8.96,7.22-.45-20.32-6.04-32.94-10.02-39.41,11.01,7.32,18.42,18.77,18.97,32.19Z"/>
      <path class="cls-9" d="m247.11,142.19c-3.63-6.16-7.45-11.77-11.39-16.69-5.12-6.38-10.24-12.09-15.24-16.99-.07-22.31,7.33-36.34,11.22-42.16,0,.09-.02.18-.03.27-.79,7.06.39,14.28,2.06,21.13,2.76,11.24,6.11,22.65,9.16,33.73,1.81,6.65,3.62,13.24,4.15,20.05.03.22.04.45.07.66Z"/>
      <path class="cls-9" d="m72.89,111.23c-.57.56-1.15,1.12-1.71,1.69-9.99,10.24-18.35,21.75-24.93,34.25-.86-5.8.48-11.86,1.96-17.54,3.96-14.11,9.08-28.08,12.03-42.52,1.3-5.83,2.15-11.9,1.99-17.99,3.84,5.6,10.63,18.81,10.66,42.12Z"/>
      <path d="m297.94,201.63c-6.68-8.87-19.04-12.56-31.75-13.6-1.15-6.91-6.89-23.55-15.75-39.94,3.1-10.98-4.56-30.23-7.8-41.1-2.06-6.41-4.28-13.49-6.22-19.98-.62-1.96-1.22-4.66-1.75-6.66-.68-3.25-1.1-6.85-1.29-10.19-.05-2.16.05-4.36.32-6.54.21-.25.33-.39.34-.4.12-.13.2-.27.26-.42,1.85-1.12,3.73-2.2,5.64-3.27,5.27-2.85,10.4-6.69,13.27-12.08-3.45,5.03-8.59,8.16-14.01,10.68-1.66.8-3.35,1.61-5.02,2.44,1.42-7.03,4.73-13.66,10.5-18.07-6.38,4.22-10.29,11.18-12.07,18.56-.2.06-.39.17-.55.34-.05.05-.21.22-.43.49-5.65,3-11.06,6.52-15.14,11.47-5.45,6.61-8.94,14.71-10.1,23.19-15.68-11.23-27.34-12.56-34.43-13.37-1.26-.14-2.35-.27-3.29-.43-5.29-3.51-9.7-8.8-12.49-12.66-.03-.03-.05-.07-.08-.1,0-.03,0-.06,0-.06l-2.54-3.64c-1.27-2.05-2.98-5.19-3.94-6.85.02.28.04.56.06.83-.16-.29-.31-.56-.47-.83.28,4.34.87,9.31-.26,13.67-.43-7.04-1.36-14.22-2.05-21.17-.1.36-.2.73-.3,1.09-.04-.35-.08-.72-.12-1.06-2.99,10.95-5.11,24.76-16.17,30.46-6.01.22-16.73,3.4-23.81,6.47-6.81,2.89-13.33,6.45-19.47,10.58-1.09-15.25-11.67-28.63-25.12-35.4-.09-.83-.31-1.68-.4-2.23-1.88-7.37-7.95-12.92-14.55-16.22,5.3,4.27,10.02,9.94,11.72,16.6-6.73-3.95-13.49-7.92-18.68-13.89,1.59,4.31,4.73,7.92,8.16,10.93,3.02,2.66,6.52,4.77,10.26,6.26.15.05.32.13.49.2.64,6.92-.19,13.91-1.73,20.8-2.95,14.43-8.01,28.18-12,42.39-1.84,7.08-3.44,14.69-1.28,21.96-6.2,12.89-10.91,26.56-12.6,40.82-1.32.28-2.64.58-3.95.91-1.07.26-2.13.54-3.17.84-.89.25-2.67.87-2.67.87-2.96,1.04-5.75,2.3-8.27,3.83-4.51,2.88-10.34,7.31-11.39,12.95-.17.88-.22,1.79-.13,2.72.02.13.04.27.08.4.58,2.7,3.19,4.79,5.67,5.65C3.16,224.49-.09,229.57.01,234.26c-.1,2.27.46,5.38,2.91,6.32,2.22.75,4.23-.19,5.94-1.39.12-.09.24-.17.36-.26-1.75.43-4.02,1-5.55.08-1.9-1.31-1.1-5.2-.65-7.39,1.42-4.68,4.93-8.51,8.17-12.12,3.06-3.3,6.27-6.45,9.61-9.5,1.21-1.1,2.43-2.19,3.67-3.27-1.08.61-2.28,1.35-3.56,2.18-4.12,2.7-9.05,6.48-13.09,10.68-3.54-2.28-5.69-5.73-2.99-9.83,2.41-3.8,6.28-6.43,10.14-8.72.5-.29,1.01-.57,1.53-.84.64-.34,1.29-.66,1.96-.98.46-.22.92-.43,1.38-.63.61-.27,1.23-.53,1.85-.76,1.25-.49,2.52-.94,3.8-1.33,2.44-.69,4.89-1.3,7.36-1.84,9.05-2,18.26-3.1,27.51-4.18-.51-.04-1.03-.07-1.55-.1-7.45-.43-16.05-.33-24.31.89.36-2.97.92-6,1.56-8.97,2.34-10.62,6.16-20.88,10.92-30.66,0,0,0-.02,0-.02.11-.21.21-.42.31-.63.05-.1.1-.2.15-.3,6.62-13.15,15.26-25.22,25.68-35.89.67-.69,1.36-1.37,2.05-2.05,3.42-3.28,7.22-6.42,11.29-9.33,13.37-9.33,28.67-16.62,44.97-18.46,7.36-3.22,11.42-10.37,14.01-17.8.27,2.92.51,5.83.66,8.74.02.51.07,1.54.05,2.06,0,1.1,1.03,1.76,1.97,1.65.61.05,1.27-.22,1.59-.74,1.05-1.61,1.74-3.37,2.22-5.18.31-1.18.49-2.38.62-3.57.02.03.04.06.06.09l.5.72c.21.39.61.71,1.03.93,2.97,4.07,7.64,9.61,13.29,13.29l.22.14.26.04c1.09.21,2.32.34,3.74.51,7.09.81,18.95,2.16,35.01,14.23,3.64,2.74,7.39,5.95,11.12,9.55l.4.4c5.05,4.9,10.24,10.67,15.42,17.14,4.97,6.21,9.75,13.51,14.19,21.7,8.63,15.86,14.3,31.91,15.62,38.96-9.06-.49-18.1.26-25.18,1.34,6.71.06,13.54.15,20.3.69,1.97.15,3.95.35,5.91.59.17.07.36.13.55.13.05,0,.1,0,.15,0,.04,0,.07-.02.11-.02.36.04.71.09,1.07.15,4.84.66,9.62,1.66,14.27,3.13,7.3,2.4,24.11,11.21,12.12,18.87-2.54,1.65-5.47,2.79-8.45,3.82-6.43-3.74-14.74-3.71-21.44-.81,7.22-.65,14.8-.4,21.13,3.34,2.31,1.44,4.79,3.17,5.62,5.84.15.5.21,1.04.18,1.6-.04.84-.3,1.71-.76,2.5,1.2-.96,1.88-2.61,1.79-4.29-.32-3.35-2.96-5.75-5.5-7.56,7.84-1.45,18.4-6.33,12.67-15.53ZM71.18,112.92c-9.99,10.24-18.35,21.75-24.93,34.25-.86-5.8.48-11.86,1.96-17.54,3.96-14.11,9.08-28.08,12.03-42.52,1.3-5.83,2.15-11.9,1.99-17.99,3.84,5.6,10.63,18.81,10.66,42.12-.57.56-1.15,1.12-1.71,1.69Zm12.9-11.08c-3.01,2.19-5.86,4.5-8.53,6.9-.03-1.27-.07-2.51-.14-3.72-.06-1.2-.15-2.39-.25-3.54-.06-.69-.13-1.37-.2-2.04-.05-.45-.11-.89-.16-1.33-.05-.48-.12-.94-.18-1.4-.07-.52-.14-1.04-.22-1.55-.31-2.04-.68-3.96-1.09-5.78-.1-.46-.21-.91-.31-1.35-.08-.34-.16-.67-.25-1.01-.3-1.18-.61-2.3-.94-3.38-.16-.53-.32-1.05-.48-1.56-.07-.21-.13-.4-.21-.61-.13-.38-.25-.75-.39-1.11-.13-.37-.26-.73-.4-1.08-.15-.43-.31-.84-.48-1.26-.22-.57-.45-1.1-.67-1.63-.58-1.35-1.17-2.58-1.74-3.7-.17-.33-.34-.66-.51-.96-.13-.24-.26-.48-.39-.71-.25-.46-.5-.89-.75-1.3,10.57,7.32,18.17,19.02,18.3,32.1h0Zm133.73,4.14c-2.96-2.76-5.91-5.26-8.83-7.48,2.69-10.87,7-22.17,16.01-29.28,1.04-.83,2.1-1.62,3.18-2.39-4.08,6.68-9.94,19.61-10.36,39.15Zm17.91,19.53c-5.12-6.38-10.24-12.09-15.24-16.99-.07-22.31,7.33-36.34,11.22-42.16,0,.09-.02.18-.03.27-.79,7.06.39,14.28,2.06,21.13,2.76,11.24,6.11,22.65,9.16,33.73,1.81,6.65,3.62,13.24,4.15,20.05.03.22.04.45.07.66-3.63-6.16-7.45-11.77-11.39-16.69Z"/>
      <path d="m62.16,273.67c-.11-.32-.33-.61-.66-.78-.48-.25-1.03-.19-1.43.11-.16.12-.29.27-.39.45-.03.04-.39.74-.95,1.99h0c.85.3,1.71.58,2.56.86h0c.46-1,.74-1.55.76-1.59.18-.33.2-.71.1-1.04Z"/>
      <path d="m235.99,272.94c-.33-.14-.72-.15-1.07,0-.3.13-.53.36-.66.63-.17.34-.2.76-.03,1.14.02.04.34.79.84,2.08h0c.85-.29,1.7-.57,2.55-.88-.51-1.31-.85-2.11-.93-2.28-.14-.32-.4-.57-.7-.69Z"/>
      <path d="m208.36,223.48l-11.28-5.88c-1.08-.55-1.98,1.04-.95,1.67,0,0,2.03,1.26,3.69,2.29-3.73,2.09-7.75,3.78-11.81,5.19-27.08,9.5-73.11,10.57-97.78-5.76l5.19-4.3c.63-.52-.11-1.49-.77-1.04l-12.58,8.35c-.71.47-.87,1.47-.32,2.13.51.62,1.42.7,2.04.19l4.79-3.97c3.57,3.31,8.03,5.51,12.38,7.59,4.93,2.21,10.5,3.88,16.07,5.19,14.3,3.15,31.01,3.7,52.44,0,6.9-1.42,14.17-3.31,20.17-5.86,4.26-1.89,8.47-3.64,12.21-6.45,2.91,1.8,5.1,3.16,5.1,3.16.71.44,1.66.18,2.04-.56.38-.71.1-1.59-.62-1.95Z"/>
      <path d="m284,231.69c-2.32-4.31-6.69-7.58-11.86-8.92,10.21,4.84,14.98,15.38,7.08,24.57-11.22,12.92-29.46,19.8-45.36,25.17-45.66,14.49-94.93,17.27-141.84,7.41-15.55-3.24-31.1-7.48-45.8-13.56-7.28-3.11-14.45-6.56-20.52-11.45l-.95-.83-.87-.9c-9.06-9.07-5.86-23.36-.19-33.49-1.75,2.11-3.27,4.41-4.5,6.82-1.47,2.85-2.53,5.86-3.09,8.9-.8,4.31-.6,8.68.89,12.73,1.23,3.37,3.36,6.53,6.52,9.25,9.5,7.57,21.97,13.45,35.22,18.03.85.3,1.71.58,2.56.86,15.53,5.13,31.95,8.51,45.8,10.72.63.1,1.26.2,1.88.29.55.08,1.09.16,1.62.23.47.07.94.14,1.41.21,24.06,3.32,48.58,3.33,72.67.2.65-.08,1.3-.17,1.95-.26.46-.06.92-.13,1.37-.19,1.73-.25,3.46-.51,5.2-.79,14.09-2.32,28.25-5.38,41.87-9.92.85-.29,1.7-.57,2.55-.88,9.47-3.3,18.65-7.36,27.35-12.42,6.26-3.82,12.33-8.19,16.83-14.13,1.18-1.43,2.18-3.2,2.88-5.01,1.77-4.59,1.28-9-.68-12.67Z"/>
      <g id="_图层_1-2" data-name=" 图层 1-2">
        <g>
          <circle class="cls-12" cx="148.16" cy="304.14" r="44.85"/>
          <path class="cls-5" d="m120.07,280.1l-4.54-3.89c7.02-8.2,16.77-13.42,27.44-14.71l.72,5.94c-9.18,1.11-17.56,5.61-23.61,12.66h0Z"/>
          <path class="cls-5" d="m115.59,286.63l-5.26-2.84c.82-1.52,1.74-3.01,2.74-4.43l4.88,3.45c-.86,1.22-1.66,2.5-2.36,3.81Z"/>
          <circle class="cls-11" cx="148.16" cy="304.14" r="34.35"/>
          <path class="cls-2" d="m122.13,309.19c0-18.97,15.38-34.35,34.35-34.35,4.77,0,9.31.97,13.44,2.73-5.93-4.86-13.5-7.77-21.76-7.77-18.97,0-34.35,15.38-34.35,34.35,0,14.2,8.62,26.39,20.91,31.62-7.68-6.3-12.59-15.87-12.59-26.58h0Z"/>
          <g>
            <path class="cls-2" d="m151.7,331.25h-3.69v-5.07c-6.78-.57-11.12-3.85-13.02-9.86l5.88-1.37c1.06,3.85,3.44,5.93,7.14,6.22v-10.82c-4.83-1.11-7.98-2.52-9.44-4.23-1.46-1.71-2.19-3.75-2.19-6.12,0-6.15,3.88-9.71,11.63-10.66v-3.94h3.69v3.94c5.67.73,9.25,3.53,10.75,8.41l-5.55,1.18c-.95-2.81-2.68-4.33-5.2-4.55v9.56c3.57,1.02,5.98,1.81,7.22,2.36,1.24.55,2.36,1.62,3.35,3.2.99,1.59,1.49,3.45,1.49,5.59,0,3.03-1.03,5.55-3.09,7.56-2.06,2.01-5.05,3.19-8.97,3.53v5.07h0Zm-3.69-36.87c-1.59.02-2.91.42-3.98,1.19-1.07.78-1.6,1.92-1.6,3.44,0,2.56,1.86,4.08,5.58,4.57v-9.2h0Zm3.69,26.79c1.71-.02,3.15-.52,4.31-1.51,1.16-.99,1.74-2.27,1.74-3.86,0-2.67-2.02-4.37-6.05-5.12v10.49h0Z"/>
            <path class="cls-3" d="m149.9,327.96h-3.69v-5.07c-6.78-.57-11.12-3.85-13.02-9.86l5.88-1.37c1.06,3.85,3.44,5.93,7.14,6.22v-10.82c-4.83-1.11-7.98-2.52-9.44-4.23-1.46-1.71-2.19-3.75-2.19-6.12,0-6.15,3.88-9.71,11.63-10.66v-3.94h3.69v3.94c5.67.73,9.25,3.53,10.75,8.41l-5.55,1.18c-.95-2.81-2.68-4.33-5.2-4.55v9.56c3.57,1.02,5.98,1.81,7.22,2.36,1.24.55,2.36,1.62,3.35,3.2.99,1.59,1.49,3.45,1.49,5.59,0,3.03-1.03,5.55-3.09,7.56-2.06,2.01-5.05,3.19-8.97,3.53v5.07h0Zm-3.69-36.87c-1.59.02-2.91.42-3.98,1.19-1.07.78-1.6,1.92-1.6,3.44,0,2.56,1.86,4.08,5.58,4.57v-9.2h0Zm3.69,26.79c1.71-.02,3.15-.52,4.31-1.51,1.16-.99,1.74-2.27,1.74-3.86,0-2.67-2.02-4.37-6.05-5.12v10.49h0Z"/>
          </g>
        </g>
      </g>
      <g>
        <path d="m104.76,292.78c-1.26,1.92-2.31,3.93-3.01,6.13-.58,1.85-.83,3.85-.41,5.74.03.18.3.12.27-.04-.18-2.82.79-5.53,2.34-8.05.22-1.1.36-2.23.81-3.78Z"/>
        <path d="m191.96,294.4c1.67,2.1,3,4.45,4,6.96.05.17.23.26.4.21.17-.04.27-.23.22-.4-1.12-3.98-3.01-7.53-5.67-10.66.21.68.54,1.61,1.05,3.9Z"/>
        <path d="m93.88,347.93c.23-.45.48-.91.74-1.36.32-.59,1.03-.83,1.65-.59.02.02.03.02.04.02.04.02.09.04.13.06.66.37.88,1.2.5,1.85-.16.31-.35.65-.54,1.01"/>
        <path d="m194.4,349.79c-.18-.34-.36-.69-.55-1.03-.42-.82,0-1.54.63-1.84t.02,0c.11-.03.22-.06.32-.1,0,0,0,0,.02,0,.52-.11,1.09.09,1.42.74.19.41.4.89.64,1.41"/>
        <g>
          <path class="cls-7" d="m197.38,315.22s0,0,0,0c0,.02,0,.02,0,0Z"/>
          <path class="cls-7" d="m196.36,301.56s-.08.01-.11.01c.13,1.72-.69,2.54-1.31,2.91,1.34,2.66,2.19,5.56,2.47,8.55,0-3.68-.01-11-.05-14.45-.09.1-.18.19-.3.26-.34.19-.68.39-1.03.59.2.57.39,1.14.55,1.72.05.17-.04.36-.22.4Z"/>
          <path class="cls-7" d="m190.89,290.48c2.23,2.65,3.98,5.69,5.13,8.96.35-.2.69-.4,1.03-.59.12-.07.21-.17.3-.26-.01-1.21-.03-1.95-.04-1.88.09.09.18.19.24.3.3.53.19,1.16-.2,1.58.04,3.45.05,10.76.05,14.45.06.66.1,1.33.11,1.99,0,.09-.05.15-.12.2,0,.02,0,.02,0,0,0,0,0,0,0,0,0-.12.01-.95.01-2.19-.28-2.99-1.13-5.88-2.47-8.55.62-.37,1.45-1.19,1.31-2.91.04,0,.08,0,.11-.01.17-.04.27-.23.22-.4-.16-.58-.35-1.15-.55-1.72-12.45,7.28-31.96,22.14-34.34,33.13-.54,2.51-.16,4.63,1.17,6.47,7.04,9.73,17.86,12.38,31.63,7.88t.02,0c.1-.04.21-.08.32-.1,0,0,0,0,.02,0,3.19-1.06,6.54-2.5,10.03-4.33,19.63-10.28,30.25-22.96,35.53-42.44,4.31-15.92-2.81-16.68-5.33-23.24-13.62,4.54-27.78,7.6-41.87,9.92-1.16.19-2.31.36-3.47.54.16.41.54,1.4,1.16,3.23Z"/>
          <path class="cls-7" d="m99.31,298.61c-.37-.23-.58-.68-.68-1.26-.02.07-.03.14-.04.21-.02.11-.13.18-.23.15-.06-.01-.1-.05-.13-.1.12,1.71.21,17.65.36,16.66.56-3.39,1.61-6.71,3.17-9.78-.07-.3-.13-.61-.16-.92-.01.34-.02.68,0,1.03.03.16-.24.22-.27.04-.29-1.31-.26-2.66-.02-3.99-.85-.51-1.25-.71-1.26-.72-.52-.25-.79-.79-.74-1.33Z"/>
          <path class="cls-7" d="m61.3,276.3c-2.76,6.07-11.67,8.68-3.71,32.73,5.61,16.92,21.74,29.37,34.96,35.39,1.25.57,2.49,1.09,3.72,1.56.02.02.03.02.04.02,10.68,4.16,20.65,5.04,27.2,2.3,7.24-3.03,11.25-6.89,11.92-11.48.83-5.74-3.61-12.77-12.84-20.33-12.38-10.12-18.78-14.33-21.27-15.83-.24,1.32-2.38-2.29-2.01-2.05-.05.54.23,1.08.74,1.33.02,0,.41.21,1.26.72.11-.59.25-1.18.43-1.75.7-2.18,1.76-4.21,3.01-6.13.77-2.99,1.62-5.01,1.95-5.81-13.77-2.22-30.03-5.58-45.42-10.66Z"/>
          <path class="cls-7" d="m230.74,325.53c-6.12,7.58-14.2,13.87-24.62,19.32-3.28,1.71-6.34,3.07-9.23,4.1"/>
          <path class="cls-7" d="m93.88,347.93c-.82-.33-1.63-.68-2.45-1.06-12.49-5.68-22.9-14.19-29.73-23.96"/>
        </g>
        <path d="m58.74,275.44c-3.03,6.78-9.65,14.5-3.7,34.44,1.09,3.64,2.9,7.15,5.03,10.55l1.63,2.48c6.83,9.77,17.24,18.28,29.73,23.96.82.38,1.63.73,2.45,1.06.5.22,1,.41,1.5.61.34.13.69.26,1.03.39,6.48,2.4,12.72,3.63,18.17,3.63,3.75,0,7.13-.58,9.97-1.77.37-.16.73-.32,1.09-.48l-.05.08c.69.66,1.48,1.19,2.28,1.69.81.49,1.65.93,2.52,1.33.87.4,1.76.76,2.71,1.04.94.29,1.92.53,2.99.62-.5-.96-1.09-1.77-1.72-2.52-.62-.77-1.3-1.45-2-2.1-.7-.65-1.43-1.26-2.19-1.81-.18-.13-.37-.26-.55-.38.66-.4,1.28-.81,1.86-1.23.51.47,1.07.9,1.65,1.29.75.52,1.54.99,2.37,1.43.82.43,1.66.85,2.54,1.21.88.36,1.78.7,2.76.93-.45-.9-.98-1.71-1.53-2.48-.55-.78-1.14-1.5-1.75-2.21-.61-.7-1.24-1.37-1.92-1.99-.34-.31-.68-.61-1.04-.89.71-.77,1.33-1.58,1.83-2.41.52.32,1.05.63,1.59.93,1.02.57,2.07,1.1,3.14,1.6,1.07.5,2.14.99,3.24,1.44,1.1.45,2.21.88,3.38,1.24-.78-.93-1.61-1.79-2.45-2.63-.84-.84-1.71-1.64-2.59-2.43-.88-.79-1.77-1.54-2.69-2.27-.68-.54-1.39-1.05-2.11-1.53.08-.34.14-.68.19-1.02,1-6.82-3.65-14.49-13.8-22.79-16.98-13.88-22.82-16.77-23.06-16.89-.66-.32-1.47-.04-1.79.63-.07.15-.12.31-.13.48-.04.54.24,1.07.74,1.32.06.03,5.91,2.96,22.53,16.55,9.23,7.56,13.68,14.58,12.84,20.33-.66,4.59-4.68,8.44-11.92,11.48-6.55,2.75-16.52,1.87-27.2-2.3-.02,0-.03,0-.04-.02-1.23-.48-2.47-1-3.72-1.56-13.23-6.01-29.19-18.52-34.96-35.39-5.78-16.89.95-26.67,3.71-32.73h0c-.85-.28-1.71-.57-2.56-.86Z"/>
        <path d="m235.07,276.79c2.52,6.56,8.15,12.33,5.33,23.24-5.04,19.54-15.9,32.16-35.53,42.44-3.49,1.83-6.85,3.28-10.03,4.33,0,0-.02,0-.02,0-.11.04-.22.07-.32.1t-.02,0c-13.78,4.5-24.59,1.85-31.63-7.88-1.33-1.84-1.71-3.96-1.17-6.47,2.45-11.3,22.99-26.68,35.37-33.73.65-.37.87-1.19.5-1.84-.03-.06-.07-.12-.11-.16-.04-.05-.09-.1-.13-.14h0c-.41-.4-1.07-.5-1.6-.2-9.19,5.23-33.69,21.82-36.66,35.5-.33,1.53-.38,2.97-.16,4.34-.81.49-1.55,1.08-2.28,1.69-.79.68-1.55,1.39-2.28,2.15-.74.74-1.46,1.52-2.16,2.32-.7.81-1.38,1.63-2.01,2.53,1.05-.31,2.05-.69,3.04-1.1.98-.41,1.95-.84,2.89-1.31.95-.45,1.87-.95,2.76-1.48.51-.32,1.02-.65,1.51-1,.1.16.19.32.31.47.46.64.96,1.27,1.49,1.89-.46.34-.89.72-1.31,1.1-.63.61-1.25,1.25-1.82,1.94-.58.68-1.15,1.38-1.68,2.13-.53.74-1.05,1.5-1.5,2.35.93-.24,1.79-.57,2.64-.91.85-.35,1.66-.73,2.46-1.14.81-.4,1.57-.84,2.32-1.32.59-.4,1.17-.81,1.7-1.29.68.61,1.41,1.19,2.18,1.74-.24.18-.47.37-.7.56-.65.56-1.27,1.15-1.86,1.79-.6.62-1.18,1.28-1.75,1.96-.56.69-1.11,1.39-1.6,2.17.9-.19,1.76-.45,2.6-.73.84-.29,1.66-.59,2.45-.94.81-.33,1.58-.7,2.33-1.11.74-.42,1.47-.86,2.11-1.43l-.14-.2c3.25,1.6,7.12,2.61,11.72,2.61,3.57,0,7.59-.61,12.1-2.01.51-.15,1.02-.32,1.54-.5.31-.11.63-.22.95-.34,2.88-1.03,5.95-2.39,9.23-4.1,10.42-5.45,18.5-11.74,24.62-19.32l1.72-2.25c4.77-6.51,8.41-13.88,10.54-22.53,2.95-11.98-2.67-17.91-5.38-24.83-.85.31-1.7.59-2.55.88h0Z"/>
      </g>
    </g>
  </g>
</svg>