<?xml version="1.0" encoding="UTF-8"?>
<svg xmlns="http://www.w3.org/2000/svg" xmlns:xlink="http://www.w3.org/1999/xlink" viewBox="0 0 200 200">
  <defs>
    <style>
      .cls-1 {
        fill: #efc1a8;
      }

      .cls-2 {
        filter: url(#drop-shadow-2);
      }

      .cls-2, .cls-3, .cls-4, .cls-5, .cls-6, .cls-7 {
        fill: #d1871c;
      }

      .cls-3 {
        filter: url(#drop-shadow-5);
      }

      .cls-8 {
        fill: #efc335;
      }

      .cls-9 {
        fill: #f4a61c;
      }

      .cls-10 {
        fill: #ff9045;
      }

      .cls-4 {
        filter: url(#drop-shadow-3);
      }

      .cls-11 {
        fill: #fff1ab;
      }

      .cls-5 {
        filter: url(#drop-shadow-6);
      }

      .cls-12 {
        fill: #fed546;
      }

      .cls-13 {
        fill: #ffdcc5;
      }

      .cls-6 {
        filter: url(#drop-shadow-4);
      }

      .cls-14 {
        fill: #fdc72f;
      }

      .cls-15 {
        fill: #fbe945;
      }

      .cls-16 {
        fill: #969696;
        opacity: .16;
      }

      .cls-17 {
        fill: #f76715;
      }

      .cls-18 {
        fill: #ffce80;
      }

      .cls-7 {
        filter: url(#drop-shadow-1);
      }
    </style>
    <filter id="drop-shadow-1" filterUnits="userSpaceOnUse">
      <feOffset dx="0" dy="2"/>
      <feGaussianBlur result="blur" stdDeviation="0"/>
      <feFlood flood-color="#f4a61c" flood-opacity="1"/>
      <feComposite in2="blur" operator="in"/>
      <feComposite in="SourceGraphic"/>
    </filter>
    <filter id="drop-shadow-2" filterUnits="userSpaceOnUse">
      <feOffset dx="0" dy="2"/>
      <feGaussianBlur result="blur-2" stdDeviation="0"/>
      <feFlood flood-color="#f4a61c" flood-opacity="1"/>
      <feComposite in2="blur-2" operator="in"/>
      <feComposite in="SourceGraphic"/>
    </filter>
    <filter id="drop-shadow-3" filterUnits="userSpaceOnUse">
      <feOffset dx="0" dy="2"/>
      <feGaussianBlur result="blur-3" stdDeviation="0"/>
      <feFlood flood-color="#f4a61c" flood-opacity="1"/>
      <feComposite in2="blur-3" operator="in"/>
      <feComposite in="SourceGraphic"/>
    </filter>
    <filter id="drop-shadow-4" filterUnits="userSpaceOnUse">
      <feOffset dx="0" dy="2"/>
      <feGaussianBlur result="blur-4" stdDeviation="0"/>
      <feFlood flood-color="#f4a61c" flood-opacity="1"/>
      <feComposite in2="blur-4" operator="in"/>
      <feComposite in="SourceGraphic"/>
    </filter>
    <filter id="drop-shadow-5" filterUnits="userSpaceOnUse">
      <feOffset dx="0" dy="2"/>
      <feGaussianBlur result="blur-5" stdDeviation="0"/>
      <feFlood flood-color="#f4a61c" flood-opacity="1"/>
      <feComposite in2="blur-5" operator="in"/>
      <feComposite in="SourceGraphic"/>
    </filter>
    <filter id="drop-shadow-6" filterUnits="userSpaceOnUse">
      <feOffset dx="0" dy="2"/>
      <feGaussianBlur result="blur-6" stdDeviation="0"/>
      <feFlood flood-color="#f4a61c" flood-opacity="1"/>
      <feComposite in2="blur-6" operator="in"/>
      <feComposite in="SourceGraphic"/>
    </filter>
  </defs>
  <g id="shadow">
    <ellipse class="cls-16" cx="100" cy="165.42" rx="100" ry="34.58"/>
  </g>
  <g id="dollar6">
    <g>
      <ellipse class="cls-14" cx="73.07" cy="152.76" rx="54.08" ry="25.85"/>
      <rect class="cls-14" x="19.04" y="136.66" width="108.05" height="17.09"/>
      <ellipse class="cls-15" cx="73.07" cy="134.9" rx="54.08" ry="25.85"/>
      <ellipse class="cls-14" cx="73.07" cy="134.82" rx="41.25" ry="19.72"/>
      <path class="cls-7" d="m91.48,130.76l.9,2.98h-4.27c.97,6.32-1.2,11.07-6.9,13.35l-1.98-6.66c3.44-1.08,4.95-3.39,4.65-6.69h-9.12c-.89,4.38-2.18,7.57-3.83,9.15-1.73,1.65-3.81,2.51-6.17,2.51-6.13,0-8.64-4.33-7.69-11.66h-3.32s.9-2.98.9-2.98h3.17c1.57-4.08,4.14-6.38,7.77-7.29l.39,3.53c-2.22.65-3.6,1.88-4.12,3.76h7.68c.94-2.63,1.6-4.28,2.03-5.1.42-.79,1.2-1.48,2.33-2.09,1.1-.59,2.39-.88,3.88-.88,2.11,0,3.97.6,5.62,1.85,1.73,1.31,3.07,3.33,4.01,6.2h4.07s0,0,0,0Zm-30.16,2.98c-.24,1.37-.11,2.57.4,3.56.53,1.02,1.49,1.55,2.87,1.55,2.33,0,3.84-1.79,4.48-5.11h-7.75s0,0,0,0Zm22.06-2.98c-.23-1.29-.8-2.33-1.68-3.15-.86-.79-1.87-1.18-3.06-1.18-1.99,0-3.21,1.37-3.69,4.32h8.43s0,0,0,0Z"/>
      <path class="cls-11" d="m28.82,138.23c3.93,7.78,12.44,12.15,20.47,14.67,0,0,3.78,1,3.78,1l-.98,4.73c-9.85-1.94-19.86-6-26.32-14.03-1.04-1.32-1.89-2.54-2.62-4.14,0,0,5.67-2.23,5.67-2.23h0Z"/>
      <rect class="cls-11" x="54.06" y="155.62" width="4.67" height="3.44" transform="translate(-108.24 186.21) rotate(-80.23)"/>
      <path class="cls-9" d="m73.07,119.37c21.23,0,38.71,7.67,40.99,17.53.15-.69.26-1.38.26-2.09,0-10.89-18.47-19.72-41.25-19.72s-41.25,8.83-41.25,19.72c0,.71.11,1.4.26,2.09,2.28-9.86,19.75-17.53,40.99-17.53Z"/>
    </g>
  </g>
  <g id="dollar5">
    <g>
      <ellipse class="cls-14" cx="83.89" cy="131.97" rx="54.08" ry="25.85"/>
      <rect class="cls-14" x="29.87" y="115.87" width="108.05" height="17.09"/>
      <ellipse class="cls-15" cx="83.89" cy="114.12" rx="54.08" ry="25.85"/>
      <ellipse class="cls-14" cx="83.89" cy="114.03" rx="41.25" ry="19.72"/>
      <path class="cls-2" d="m102.31,109.98l.9,2.98h-4.27c.97,6.32-1.2,11.07-6.9,13.35l-1.98-6.66c3.44-1.08,4.95-3.39,4.65-6.69h-9.12c-.89,4.38-2.18,7.57-3.83,9.15-1.73,1.65-3.81,2.51-6.17,2.51-6.13,0-8.64-4.33-7.69-11.66h-3.32s.9-2.98.9-2.98h3.17c1.57-4.08,4.14-6.38,7.77-7.29l.39,3.53c-2.22.65-3.6,1.88-4.12,3.76h7.68c.94-2.63,1.6-4.28,2.03-5.1.42-.79,1.2-1.48,2.33-2.09,1.1-.59,2.39-.88,3.88-.88,2.11,0,3.97.6,5.62,1.85,1.73,1.31,3.07,3.33,4.01,6.2h4.07s0,0,0,0Zm-30.16,2.98c-.24,1.37-.11,2.57.4,3.56.53,1.02,1.49,1.55,2.87,1.55,2.33,0,3.84-1.79,4.48-5.11h-7.75s0,0,0,0Zm22.06-2.98c-.23-1.29-.8-2.33-1.68-3.15-.86-.79-1.87-1.18-3.06-1.18-1.99,0-3.21,1.37-3.69,4.32h8.43s0,0,0,0Z"/>
      <path class="cls-11" d="m39.64,117.45c3.93,7.78,12.44,12.15,20.47,14.67,0,0,3.78,1,3.78,1l-.98,4.73c-9.85-1.94-19.86-6-26.32-14.03-1.04-1.32-1.89-2.54-2.62-4.14,0,0,5.67-2.23,5.67-2.23h0Z"/>
      <rect class="cls-11" x="64.89" y="134.84" width="4.67" height="3.44" transform="translate(-78.77 179.62) rotate(-80.23)"/>
      <path class="cls-9" d="m83.89,98.59c21.23,0,38.71,7.67,40.99,17.53.15-.69.26-1.38.26-2.09,0-10.89-18.47-19.72-41.25-19.72s-41.25,8.83-41.25,19.72c0,.71.11,1.4.26,2.09,2.28-9.86,19.75-17.53,40.99-17.53Z"/>
    </g>
  </g>
  <g id="dollar4">
    <g>
      <ellipse class="cls-14" cx="74.96" cy="108.18" rx="54.08" ry="25.85"/>
      <rect class="cls-14" x="20.94" y="92.08" width="108.05" height="17.09"/>
      <ellipse class="cls-15" cx="74.96" cy="90.32" rx="54.08" ry="25.85"/>
      <ellipse class="cls-14" cx="74.96" cy="90.24" rx="41.25" ry="19.72"/>
      <path class="cls-4" d="m93.37,86.19l.9,2.98h-4.27c.97,6.32-1.2,11.07-6.9,13.35l-1.98-6.66c3.44-1.08,4.95-3.39,4.65-6.69h-9.12c-.89,4.38-2.18,7.57-3.83,9.15-1.73,1.65-3.81,2.51-6.17,2.51-6.13,0-8.64-4.33-7.69-11.66h-3.32s.9-2.98.9-2.98h3.17c1.57-4.08,4.14-6.38,7.77-7.29l.39,3.53c-2.22.65-3.6,1.88-4.12,3.76h7.68c.94-2.63,1.6-4.28,2.03-5.1.42-.79,1.2-1.48,2.33-2.09,1.1-.59,2.39-.88,3.88-.88,2.11,0,3.97.6,5.62,1.85,1.73,1.31,3.07,3.33,4.01,6.2h4.07s0,0,0,0Zm-30.16,2.98c-.24,1.37-.11,2.57.4,3.56.53,1.02,1.49,1.55,2.87,1.55,2.33,0,3.84-1.79,4.48-5.11h-7.75s0,0,0,0Zm22.06-2.98c-.23-1.29-.8-2.33-1.68-3.15-.86-.79-1.87-1.18-3.06-1.18-1.99,0-3.21,1.37-3.69,4.32h8.43s0,0,0,0Z"/>
      <path class="cls-11" d="m30.71,93.66c3.93,7.78,12.44,12.15,20.47,14.67,0,0,3.78,1,3.78,1l-.98,4.73c-9.85-1.94-19.86-6-26.32-14.03-1.04-1.32-1.89-2.54-2.62-4.14,0,0,5.67-2.23,5.67-2.23h0Z"/>
      <rect class="cls-11" x="55.95" y="111.05" width="4.67" height="3.44" transform="translate(-62.74 151.07) rotate(-80.23)"/>
      <path class="cls-9" d="m74.96,74.8c21.23,0,38.71,7.67,40.99,17.53.15-.69.26-1.38.26-2.09,0-10.89-18.47-19.72-41.25-19.72s-41.25,8.83-41.25,19.72c0,.71.11,1.4.26,2.09,2.28-9.86,19.75-17.53,40.99-17.53Z"/>
    </g>
  </g>
  <g id="dollar3">
    <g>
      <ellipse class="cls-14" cx="83.89" cy="90.35" rx="54.08" ry="25.85"/>
      <rect class="cls-14" x="29.87" y="74.25" width="108.05" height="17.09"/>
      <ellipse class="cls-15" cx="83.89" cy="72.5" rx="54.08" ry="25.85"/>
      <ellipse class="cls-14" cx="83.89" cy="72.41" rx="41.25" ry="19.72"/>
      <path class="cls-6" d="m102.31,68.36l.9,2.98h-4.27c.97,6.32-1.2,11.07-6.9,13.35l-1.98-6.66c3.44-1.08,4.95-3.39,4.65-6.69h-9.12c-.89,4.38-2.18,7.57-3.83,9.15-1.73,1.65-3.81,2.51-6.17,2.51-6.13,0-8.64-4.33-7.69-11.66h-3.32s.9-2.98.9-2.98h3.17c1.57-4.08,4.14-6.38,7.77-7.29l.39,3.53c-2.22.65-3.6,1.88-4.12,3.76h7.68c.94-2.63,1.6-4.28,2.03-5.1.42-.79,1.2-1.48,2.33-2.09,1.1-.59,2.39-.88,3.88-.88,2.11,0,3.97.6,5.62,1.85,1.73,1.31,3.07,3.33,4.01,6.2h4.07s0,0,0,0Zm-30.16,2.98c-.24,1.37-.11,2.57.4,3.56.53,1.02,1.49,1.55,2.87,1.55,2.33,0,3.84-1.79,4.48-5.11h-7.75s0,0,0,0Zm22.06-2.98c-.23-1.29-.8-2.33-1.68-3.15-.86-.79-1.87-1.18-3.06-1.18-1.99,0-3.21,1.37-3.69,4.32h8.43s0,0,0,0Z"/>
      <path class="cls-11" d="m39.64,75.83c3.93,7.78,12.44,12.15,20.47,14.67,0,0,3.78,1,3.78,1l-.98,4.73c-9.85-1.94-19.86-6-26.32-14.03-1.04-1.32-1.89-2.54-2.62-4.14,0,0,5.67-2.23,5.67-2.23h0Z"/>
      <rect class="cls-11" x="64.89" y="93.22" width="4.67" height="3.44" transform="translate(-37.75 145.07) rotate(-80.23)"/>
      <path class="cls-9" d="m83.89,56.97c21.23,0,38.71,7.67,40.99,17.53.15-.69.26-1.38.26-2.09,0-10.89-18.47-19.72-41.25-19.72s-41.25,8.83-41.25,19.72c0,.71.11,1.4.26,2.09,2.28-9.86,19.75-17.53,40.99-17.53Z"/>
    </g>
  </g>
  <g id="dollar2">
    <g>
      <ellipse class="cls-14" cx="94.21" cy="71.22" rx="54.08" ry="25.85"/>
      <rect class="cls-14" x="40.19" y="55.12" width="108.05" height="17.09"/>
      <ellipse class="cls-15" cx="94.21" cy="53.36" rx="54.08" ry="25.85"/>
      <ellipse class="cls-14" cx="94.21" cy="53.28" rx="41.25" ry="19.72"/>
      <path class="cls-3" d="m112.62,49.23l.9,2.98h-4.27c.97,6.32-1.2,11.07-6.9,13.35l-1.98-6.66c3.44-1.08,4.95-3.39,4.65-6.69h-9.12c-.89,4.38-2.18,7.57-3.83,9.15-1.73,1.65-3.81,2.51-6.17,2.51-6.13,0-8.64-4.33-7.69-11.66h-3.32s.9-2.98.9-2.98h3.17c1.57-4.08,4.14-6.38,7.77-7.29l.39,3.53c-2.22.65-3.6,1.88-4.12,3.76h7.68c.94-2.63,1.6-4.28,2.03-5.1.42-.79,1.2-1.48,2.33-2.09,1.1-.59,2.39-.88,3.88-.88,2.11,0,3.97.6,5.62,1.85,1.73,1.31,3.07,3.33,4.01,6.2h4.07s0,0,0,0Zm-30.16,2.98c-.24,1.37-.11,2.57.4,3.56.53,1.02,1.49,1.55,2.87,1.55,2.33,0,3.84-1.79,4.48-5.11h-7.75s0,0,0,0Zm22.06-2.98c-.23-1.29-.8-2.33-1.68-3.15-.86-.79-1.87-1.18-3.06-1.18-1.99,0-3.21,1.37-3.69,4.32h8.43s0,0,0,0Z"/>
      <path class="cls-11" d="m49.96,56.7c3.93,7.78,12.44,12.15,20.47,14.67,0,0,3.78,1,3.78,1l-.98,4.73c-9.85-1.94-19.86-6-26.32-14.03-1.04-1.32-1.89-2.54-2.62-4.14,0,0,5.67-2.23,5.67-2.23h0Z"/>
      <rect class="cls-11" x="75.2" y="74.09" width="4.67" height="3.44" transform="translate(-10.33 139.35) rotate(-80.23)"/>
      <path class="cls-9" d="m94.21,37.84c21.23,0,38.71,7.67,40.99,17.53.15-.69.26-1.38.26-2.09,0-10.89-18.47-19.72-41.25-19.72s-41.25,8.83-41.25,19.72c0,.71.11,1.4.26,2.09,2.28-9.86,19.75-17.53,40.99-17.53Z"/>
    </g>
  </g>
  <g id="dollar1">
    <g>
      <ellipse class="cls-14" cx="83.89" cy="49.5" rx="54.08" ry="25.85"/>
      <rect class="cls-14" x="29.87" y="33.4" width="108.05" height="17.09"/>
      <ellipse class="cls-15" cx="83.89" cy="31.65" rx="54.08" ry="25.85"/>
      <ellipse class="cls-14" cx="83.89" cy="31.56" rx="41.25" ry="19.72"/>
      <path class="cls-5" d="m102.31,27.51l.9,2.98h-4.27c.97,6.32-1.2,11.07-6.9,13.35l-1.98-6.66c3.44-1.08,4.95-3.39,4.65-6.69h-9.12c-.89,4.38-2.18,7.57-3.83,9.15-1.73,1.65-3.81,2.51-6.17,2.51-6.13,0-8.64-4.33-7.69-11.66h-3.32s.9-2.98.9-2.98h3.17c1.57-4.08,4.14-6.38,7.77-7.29l.39,3.53c-2.22.65-3.6,1.88-4.12,3.76h7.68c.94-2.63,1.6-4.28,2.03-5.1.42-.79,1.2-1.48,2.33-2.09,1.1-.59,2.39-.88,3.88-.88,2.11,0,3.97.6,5.62,1.85,1.73,1.31,3.07,3.33,4.01,6.2h4.07s0,0,0,0Zm-30.16,2.98c-.24,1.37-.11,2.57.4,3.56.53,1.02,1.49,1.55,2.87,1.55,2.33,0,3.84-1.79,4.48-5.11h-7.75s0,0,0,0Zm22.06-2.98c-.23-1.29-.8-2.33-1.68-3.15-.86-.79-1.87-1.18-3.06-1.18-1.99,0-3.21,1.37-3.69,4.32h8.43s0,0,0,0Z"/>
      <path class="cls-11" d="m39.64,34.98c3.93,7.78,12.44,12.15,20.47,14.67,0,0,3.78,1,3.78,1l-.98,4.73c-9.85-1.94-19.86-6-26.32-14.03-1.04-1.32-1.89-2.54-2.62-4.14,0,0,5.67-2.23,5.67-2.23h0Z"/>
      <rect class="cls-11" x="64.89" y="52.37" width="4.67" height="3.44" transform="translate(2.5 111.16) rotate(-80.23)"/>
      <path class="cls-9" d="m83.89,16.12c21.23,0,38.71,7.67,40.99,17.53.15-.69.26-1.38.26-2.09,0-10.89-18.47-19.72-41.25-19.72s-41.25,8.83-41.25,19.72c0,.71.11,1.4.26,2.09,2.28-9.86,19.75-17.53,40.99-17.53Z"/>
    </g>
  </g>
  <g id="gift">
    <g>
      <path class="cls-10" d="m183.59,176.19l-37.74,15.31c-.72.29-1.53.29-2.25,0l-37.74-15.31c-1.13-.46-1.87-1.55-1.87-2.77v-31.12c0-1.65,1.34-2.99,2.99-2.99h75.49c1.65,0,2.99,1.34,2.99,2.99v31.12c0,1.22-.74,2.31-1.87,2.77Z"/>
      <path class="cls-17" d="m182.47,139.31h-37.74v52.4c.38,0,.76-.07,1.12-.22l37.74-15.31c1.13-.46,1.87-1.55,1.87-2.77v-31.12c0-1.65-1.34-2.99-2.99-2.99Z"/>
      <path class="cls-13" d="m186.48,144.92l-41.85,13.7c-.57.19-1.18.19-1.75,0l-41.85-13.7c-1.16-.38-1.94-1.46-1.94-2.68v-11.02c0-1.17.72-2.21,1.81-2.63l41.85-16.01c.65-.25,1.36-.25,2.01,0l41.85,16.01c1.09.42,1.81,1.46,1.81,2.63v11.02c0,1.22-.78,2.3-1.94,2.68Z"/>
      <path class="cls-13" d="m186.48,144.92l-41.85,13.7c-.57.19-1.18.19-1.75,0l-41.85-13.7c-1.16-.38-1.94-1.46-1.94-2.68v-11.02c0-1.17.72-2.21,1.81-2.63l41.85-16.01c.65-.25,1.36-.25,2.01,0l41.85,16.01c1.09.42,1.81,1.46,1.81,2.63v11.02c0,1.22-.78,2.3-1.94,2.68Z"/>
      <polygon class="cls-12" points="130.54 186.26 118.88 182.04 118.88 134.71 130.54 138.93 130.54 186.26"/>
      <polygon class="cls-12" points="130.54 138.94 118.88 134.72 132.9 128.43 143.33 132.39 130.54 138.94"/>
      <polygon class="cls-12" points="143.33 132.39 132.9 128.43 158.07 117.68 168.46 121.65 143.33 132.39"/>
      <polygon class="cls-12" points="157.27 138.94 168.93 135.08 144.48 123.6 132.82 127.82 157.27 138.94"/>
      <polygon class="cls-12" points="132.82 127.82 144.48 123.6 130.46 117.31 120.03 121.27 132.82 127.82"/>
      <path class="cls-1" d="m144.72,144.26v14.33l41.75-13.67c1.16-.38,1.94-1.46,1.94-2.68v-11.02c0-.86-.4-1.65-1.04-2.18l-41.46,13.57c-.71.23-1.19.9-1.19,1.64Z"/>
      <polygon class="cls-8" points="157.27 186.26 168.93 182.04 168.93 135.08 157.27 138.93 157.27 186.26"/>
      <path class="cls-12" d="m143.3,125.48l.82,2.95h-3.06c-16.79,0-25.61-3.02-25.61-10.29,0-8.76,3.88-12.99,11.36-12.99,5.91,0,10.01,4.23,13.02,10.52,1.43,3.17,2.59,6.45,3.47,9.81h0Zm-7.67-5.77c-1.89-3.11-5.19-5.07-8.82-5.24-4.8,0-6.71,1.37-6.71,5.55,0,2.06,5.71,3.51,17.82,3.73-.64-1.41-1.41-2.76-2.3-4.04h.01s0,0,0,0Z"/>
      <path class="cls-12" d="m144.2,125.48l-.82,2.95h3.06c16.79,0,25.61-3.02,25.61-10.29,0-8.76-3.89-12.99-11.36-12.99-5.91,0-10.01,4.23-13.02,10.52-1.43,3.17-2.59,6.45-3.47,9.81Zm7.67-5.77c1.89-3.11,5.19-5.07,8.82-5.24,4.8,0,6.7,1.37,6.7,5.55,0,2.06-5.71,3.51-17.82,3.73.64-1.41,1.41-2.76,2.3-4.04h-.01s0,0,0,0Z"/>
    </g>
  </g>
  <g id="star4">
    <path class="cls-18" d="m177.65,66.14l-4.89-2.82-2.82-4.89c-.34-.58-1.18-.58-1.52,0l-2.82,4.89-4.89,2.82c-.58.34-.58,1.18,0,1.52l4.89,2.82,2.82,4.89c.34.58,1.18.58,1.52,0l2.82-4.89,4.89-2.82c.58-.34.58-1.18,0-1.52Z"/>
  </g>
  <g id="star3">
    <path class="cls-18" d="m168.91,22.18l-3.14-1.81-1.81-3.14c-.22-.38-.76-.38-.97,0l-1.81,3.14-3.14,1.81c-.38.22-.38.76,0,.97l3.14,1.81,1.81,3.14c.22.38.76.38.97,0l1.81-3.14,3.14-1.81c.37-.22.37-.76,0-.97Z"/>
  </g>
  <g id="star2">
    <path class="cls-18" d="m18.72,59.36l-4.06-1.27-1.59-4.38c-.25-.43-.86-.43-1.11,0l-1.58,4.38-4.06,1.27c-.43.25-.43.86,0,1.11l4.06,1.27,1.58,6.93c.25.43.86.43,1.11,0l1.59-6.93,4.06-1.27c.43-.25.43-.86,0-1.11Z"/>
  </g>
  <g id="star1">
    <path class="cls-18" d="m192.9,92.86l-3.22-1-1.26-3.47c-.2-.34-.68-.34-.88,0l-1.26,3.47-3.22,1c-.34.2-.34.68,0,.88l3.22,1,1.26,5.5c.2.34.68.34.88,0l1.26-5.5,3.22-1c.34-.2.34-.69,0-.88Z"/>
  </g>
</svg>