<?xml version="1.0" encoding="UTF-8"?>
<svg xmlns="http://www.w3.org/2000/svg" viewBox="0 0 200 200">
  <defs>
    <style>
      .cls-1 {
        fill: #fff;
      }

      .cls-2 {
        fill: #ffcca8;
      }

      .cls-3 {
        fill: #969696;
        opacity: .16;
      }

      .cls-4 {
        fill: #f76715;
      }

      .cls-5 {
        fill: #ffce80;
      }
    </style>
  </defs>
  <g id="shadow">
    <ellipse class="cls-3" cx="98.85" cy="170.18" rx="69.99" ry="29.82"/>
  </g>
  <g id="user">
    <path class="cls-4" d="m165.22,110.52c0,36.87-31,59.66-69.24,59.66s-69.24-22.79-69.24-59.66,31-18.6,69.24-18.6c33.47,2.92,69.24-18.27,69.24,18.6Z"/>
    <circle class="cls-4" cx="96.97" cy="49.14" r="34.4"/>
    <ellipse class="cls-2" cx="101.9" cy="49.14" rx="32.24" ry="34.4"/>
    <path class="cls-2" d="m166.47,110.52c0,36.87-29.47,59.66-65.82,59.66s-65.82-22.79-65.82-59.66,29.47-18.6,65.82-18.6,65.82-18.27,65.82,18.6Z"/>
    <g>
      <path class="cls-4" d="m101.9,149.42c-1.02,0-1.93-.56-2.43-1.5l-5.62-10.54-9.75-6.07c-.86-.54-1.37-1.48-1.37-2.53,0-1.04.51-1.98,1.37-2.51l9.74-6.08,5.62-10.54c.5-.94,1.41-1.5,2.43-1.5s1.93.56,2.43,1.5l5.62,10.54,9.75,6.08c.85.53,1.36,1.47,1.36,2.51,0,1.05-.51,1.99-1.36,2.53l-9.75,6.07-5.63,10.54c-.5.94-1.41,1.5-2.43,1.5Z"/>
      <path class="cls-1" d="m101.9,109.15c.6,0,1.2.32,1.55.97l5.75,10.78,9.97,6.22c1.19.74,1.19,2.6,0,3.34l-9.97,6.21-5.75,10.78c-.34.64-.95.97-1.55.97s-1.2-.32-1.55-.97l-5.75-10.78-9.97-6.21c-1.19-.75-1.19-2.6,0-3.34l9.97-6.22,5.75-10.78c.34-.64.95-.97,1.55-.97m0-2c-1.38,0-2.64.78-3.31,2.02l-5.5,10.31-9.52,5.94c-1.15.71-1.83,1.97-1.84,3.36,0,1.39.68,2.66,1.83,3.38l9.52,5.93,5.5,10.31c.66,1.25,1.93,2.03,3.31,2.03s2.64-.78,3.31-2.02l5.5-10.31,9.52-5.93c1.15-.72,1.83-1.98,1.83-3.38,0-1.39-.69-2.65-1.83-3.36l-9.52-5.94-5.5-10.31c-.66-1.25-1.93-2.02-3.31-2.02h0Z"/>
    </g>
  </g>
  <g id="star4">
    <path class="cls-5" d="m159.17,65.09l-4.89-2.82-2.82-4.89c-.34-.58-1.18-.58-1.52,0l-2.82,4.89-4.89,2.82c-.58.34-.58,1.18,0,1.52l4.89,2.82,2.82,4.89c.34.58,1.18.58,1.52,0l2.82-4.89,4.89-2.82c.58-.34.58-1.18,0-1.52Z"/>
  </g>
  <g id="star3">
    <path class="cls-5" d="m183.43,25.42l-3.14-1.81-1.81-3.14c-.22-.38-.76-.38-.97,0l-1.81,3.14-3.14,1.81c-.38.22-.38.76,0,.97l3.14,1.81,1.81,3.14c.22.38.76.38.97,0l1.81-3.14,3.14-1.81c.37-.22.37-.76,0-.97Z"/>
  </g>
  <g id="star2">
    <path class="cls-5" d="m30.8,50.41l-4.63-1.45-1.81-4.99c-.28-.49-.98-.49-1.27,0l-1.81,4.99-4.63,1.45c-.49.28-.49.98,0,1.27l4.63,1.44,1.81,7.91c.28.49.98.49,1.27,0l1.81-7.91,4.63-1.44c.49-.28.49-.99,0-1.27Z"/>
  </g>
  <g id="star1">
    <path class="cls-5" d="m178.91,158.16l-3.21-1-1.26-3.47c-.19-.34-.68-.34-.88,0l-1.25,3.47-3.21,1c-.34.19-.34.68,0,.88l3.21,1,1.25,5.49c.19.34.68.34.88,0l1.26-5.49,3.21-1c.34-.2.34-.68,0-.88Z"/>
  </g>
</svg>